<mxfile host="Electron" modified="2023-12-17T20:21:58.477Z" agent="Mozilla/5.0 (X11; Linux x86_64) AppleWebKit/537.36 (KHTML, like Gecko) draw.io/22.1.2 Chrome/114.0.5735.289 Electron/25.9.4 Safari/537.36" etag="hzSHHsd9ux4gLq1Tu2zj" version="22.1.2" type="device">
  <diagram name="StrÃ¡nka-1" id="CsMZVcR0310-wCLW6ZrN">
    <mxGraphModel dx="562" dy="378" grid="1" gridSize="10" guides="1" tooltips="1" connect="1" arrows="1" fold="1" page="1" pageScale="1" pageWidth="827" pageHeight="1169" math="0" shadow="0">
      <root>
        <mxCell id="0" />
        <mxCell id="1" parent="0" />
        <mxCell id="W3qFa2u0LohmZV0F8mYn-1" value="" style="shape=image;aspect=fixed;image=data:image/png,iVBORw0KGgoAAAANSUhEUgAAAZUAAAGtCAYAAADecun7AAAACXBIWXMAAA7EAAAOxAGVKw4bAAAgAElEQVR4XuzdeVyN2R8H8M+9rbSRVoRkaQ+psZQK2ddWJPsYZB/bGIYwdhHDMMNY0iIKY0/2FiRGorJGibRKSev5/dGvZ7pPK3Mj+b5fr+f1mvs95zzT09X93uec55wjYIwxEEIIIWIg5AcIIYSQT0VJhRBCiNhQUiGEECI2lFQIIYSIDSUVQgghYkNJhRBCiNhQUiGEECI2lFQIIYSIDSUVQgghYkNJhRBCiNhQUiGEECI2lFQIIYSIDSUVQgghYkNJhRBCiNhQUiGEECI2lFQIIYSIDSUVQgghYkNJhXw2UVFRuHXrFgoKCvhFhJB6gpIKEbujR4+ib9++GDp0KE6fPo03b95AX18fJiYmMDMzQ6dOnfDixQt+M0JIPUBJhYjV1atXYWdnh/z8fDRq1Aiurq5wdXWFuro67t+/j8jISAgEAkyfPp3flBBSDwgYY4wfJORTTZo0CYmJiTh79iwAwN/fH87OzggKCoKtrS0AYM+ePZg3bx4yMjLKNiWE1AN0p0LEKiEhAebm5tzrLl26AACMjIy4mImJCTIzM7nXhJD6g5IKEavi4mLIyMhwr0v/WyAQcLGy/00IqV8oqRBCCBEbSX6AkP/q1KlTSE1NBQDk5OQAAJYuXQo5OTkAQHJyMleXEFK/0EA9EaspU6bgxo0b/HCF7ty5ww8RQr5ylFQIIYSIDY2pELEaO3YsduzYwQ8TQr4RlFSIWCUlJdH8E0K+YZRUCCGEiA09/UXELjY2FqdOneKHyxk4cCA/RAj5ytFAPRErW1tbBAcH88MVon96hNQ/dKdCxG7hwoWYM2cOP0wI+QZQUiFip6CgAHV1dX6YEPINoIF6QgghYkNJhYhVt27d0K5dO36YEPKNoIF68kVkZGSgcePG/DAh5CtHYypE7K5du4a9e/eisLAQQ4YMgYODAxISEnDixAmkpqYiLS0N3t7e3KKT37rCwkLcuHEDTZo0ga6uLr+YkK8KJRUiVpGRkbC2toaGhgZat26NsWPH4uHDh/Dw8EB+fj40NDQgJyeH/v3785vWe0VFRdi4cSNOnjyJNm3aYOHChUhNTcXgwYO5TcuGDx8Of39/SErSnyb5OlH3FxGradOm4ebNmwgJCYGsrCyioqLQsWNHmJqa4urVq5CVleU3+WasWLECK1asgIODA3JychAbGwtpaWn06dMHM2fORGxsLJycnODu7o65c+fymxPyVaCBeiJW8fHx6Nu3L5c8jI2N0bJlSzg5OX3TCQUADhw4gFWrVsHPzw8nTpyAra0tnj59Cnd3d2hra6N///4YNmwYrl27xm9KyFeDkgoRq4KCAjRs2FAkJicnR4PyABISEmBubs697tKlC1q2bAlFRUUuZmJiwnWFEfI1oqRCqpWVlYXLly/j1atX/CLyEYqLiyEjI8O9lpGRgUAgKFMD5V4T8rWhpEI4GRkZcHNzg4WFBebOnYucnBxs3rwZKioqsLGxQYsWLbBu3Tp+M0II4dBAPeH07NkTUVFRGDJkCKKioqCiooIrV65g9+7dsLCwwJEjRzB//nxERETA1NSU3xxAyYKSsbGxaN68ORe7e/cuNDU1oaamVqYmEB4eLvK6vpOSksLw4cPRrFkzAEBcXByuX7+OsWPHcnUiIyMhISGBS5cucTFCviaUVAgAIDExEVpaWggPD0eXLl1QVFSEDh06QFFREaGhoQBKVhVu1aoV5s6di1mzZvHOUMLDwwMxMTH8cIX+/PNPfqhe69y5M4qKivjhcjp37vxV/W4SEhKwb98+vHr1Cra2thg+fLhI+cmTJ5GQkICpU6eKxEn9RA/DEwAlHwwCgQBmZmYAAAkJCZiZmUFaWpqrIxAIYGRkVOVAckWPwubl5YmMJXyrbt26xQ999WJiYtC9e3coKChAVVUVO3fuxOTJk7Fz506uTmhoKG7dukVJ5RtBYyr1WGFhIUJDQxEbG8svKqe4uBgSEhKQkJDgYv9lIDk2NhbOzs5o3bo1GjZsiMaNG6NXr14iHzZVmTlzJrKysvjheikvLw/Xr19HQkICv+iTpKWlYefOnfD39+cXid2yZcvQtWtXPH78GLdu3cLVq1exf/9++Pn58auSbwQllXqgqKgI69atg6WlJcaPH4/Y2FiEhIRAVVUVFhYW0NPTg52dHQoLC/lNa8Xu3bthbGyMR48eYfz48fD29savv/6Kli1bYubMmRg0aFC1+9jv378fenp6CAgI4BeJhbieaIuKikJ0dHSNNxzbt28f9PT0EBcXB6DkDtHAwABdu3ZFixYtYGdnh+zsbF6r6uXm5sLf3x9Dhw6FpqYmpk6dipcvX/Krid29e/cwefJkSElJAQAsLCywfv16LFiwAB8+fODVJt8ERr567u7uTEJCgjk7O7NBgwaxNm3aMH19fTZ79mz29OlTdvr0aSYvL882bdrEb8oJCQlhAoGAzZ49mzuMjIyYkZGRSExbW5stX76c35xz//59Jisry1avXs2Ki4v5xSwmJoZpaGiwKVOm8ItEvHjxgjk5OTEAbNCgQez58+f8KjWSnp7Opk2bxrp3787mzJnDsrOzmYeHB5OSkmIAmKSkJFu7di2/WTk3b95k5ubmbO/evYwxxvLz89mAAQMYAAaA6evrs4cPH4o24tmzZw9r0KABmz17NktLS2OMMebo6MiaNm3Krl27xoKCgpi2tjZbsGABr2XFioqK2Pnz59m4ceOYgoICA8Datm3Lli9fzuLi4vjVa0XPnj3Zli1bRGIFBQXM0NCQLVmyhDHG2KJFi1jv3r1F6pD6i5JKPaCjo8PWrFnDvZ46dSqTlZVlb9++5WKjR49mw4YN417z3blzh3Xo0KFGx86dO/nNOW5ubqxv3778sIjjx48zCQkJlp6ezi8q58KFC0xfX5/JyckxDw8PVlhYyK9SJRsbG9akSRM2fvx4Zmpqyvr27ctkZWXZwYMHWXx8PNu4cSMTCATs1q1b/KacO3fuMCUlJebk5MTu3LnDGGNs+/btTCgUMi8vLxYZGcn69u3LzM3NeS1FGRsbc0mJMcbev3/PZGRk2I4dO7iYv78/09DQ4F5XJDIyks2dO5dpamoyAExHR4f99NNPTFVVlZ09e5ZfvVZt2LCBKSkpMX9/f/bmzRsuHhERwWRkZNj69euZm5sbJZVvCCWVekBaWppduHCBe71//37Wvn37MjVK/vitra1FYtUpLi5mHz584IerZGFhwTw9PflhER8+fGBSUlIsJCSEX1ShgoIC5uHhwRo0aMBatWrFOnfuzB0//PADvzonISGBAWDh4eGMMcYKCwuZoaEh69atG1enuLiYtWjRoty37bJmzpzJxo4dKxKztLRkTk5O3OvXr18zoVDIYmNjy9T61/v375mEhAR3h8IYY+fOnWMA2MuXL7nY/fv3GQD2/v17LlZWaGgoA8BatGjB5s2bxyIiIriyVq1affakUlxczCZPnsyEQiHr3LmzSNnx48dZo0aNGABKKt8QGlOpB8Q5U7uwsBAeHh4wMzODgoICGjZsiDZt2sDFxQXx8fF4//49hg4divj4eH5TAEBmZma1S7JIS0ujQYMGyMnJ4RdVKCUlBREREcjNzYWhoSE6dOjAHW3atOFX51T2RJuRkRFXpyZPtN26dQtDhgzhXmdnZ+P69esYOnQoF1NXV0eTJk3w7NkzLlZWdnY2ioqKkJuby8WCg4Ohq6uLpk2bcrF3795BWlq60lWKJSUlIRAIkJubi4KCApEHK74EgUCAXbt2ITk5GQcOHBApGzJkCBITExEYGEhPfn1DKv6XS75JWVlZ6NGjB+Li4jBmzBhMnDgRSkpKePjwIQ4fPgwDAwMYGBhAUVERWlpa/OYAStauioiIgKurK7+IExcXh6ysLJiYmPCLRBQVFWH79u1YunQplJWVce7cOfTp04dfrVKVPdHGV13CzczMFEkGV69eRUFBAXr27MnFGGPIyckpt+5ZKVVVVTRq1Ahnz57FxIkTUVRUhICAgHJbAFy7dg16enrcwDefubk5njx5goMHD+LgwYPw9PSEkZERxo0b90UHxlVUVKCiosIPQ05Orty8FVK/UVKpJzw9PXHkyBEAJR/aycnJmDNnDldeOlO7KjNnzkR2djZiY2PRsmVLkbKff/4Z/fv3R3BwMEJCQio91+DBgzF27FhMmDABHTp04BejuLgYM2bMgLm5OdTV1fnFnPDwcEybNg1RUVGYPn06Vq9eDTk5OX61z6Jdu3Y4e/YsXFxcAAD+/v4wMDCAhoYGVycyMhLv378XuQvic3Nzw/z58/H8+XOEh4fj6dOn3Dnfvn2L4OBguLu7Y+3atbyWorS1tbF06VIsXboUN2/ehJeXF9asWYPU1FQsWLAAMTExcHZ2hqamJr+p2LVq1apGEzq7du36WR5xJl8eJZV6wMTEBI8ePcKjR4+4WMuWLXH58uV/K6FkpnZlUlNTsX//foSFhZVLKEDJh3xERAQMDAxw6NAhdO/enV8FAODs7IxDhw7BysoKP/30E+zs7NC6dWtkZGTg1q1bWL58OaKionD79m1+UxFWVlZo164dQkND0aVLF35xjRUVFYkk19LVAcrG7t+/X+Xvxs3NDX379oWioiLy8/Nx8OBBrFy5EkDJHJPbt29j0qRJcHBwqLLrb/ny5QAAPz8/5Ofnw9PTE127dgUATJo0CQEBAZg6dSrc3NzKtKqaubk5zM3N4eHhgbNnz8LLyws//fQTfvzxR/z222+13u00ceJEFBcX88PltGrVih8i9RV/kIV8m4KDg5mysjI/zHn//j27fv0627hxI7O0tOQXi8jNzWXLli1jsrKyDAATCATco7eWlpYsKiqK36ScFStWsLy8PH74o4jriTbGGPPx8WGdOnVi6urqbOLEiSw/P58xxthvv/3GALBu3bqJPG33sWJiYkQG7P+LzMxMtnv3bnb48GF+Eaeqp93K8vHx4YcIqRKt/UUAAAEBAZg/fz6ePn3KLxKxefNmHD58GGFhYfyicjIzMxEdHY24uDioqKjAwMCgyoF1PsYYAgMDsXfvXjx+/Bhv3rxBixYtoKenhzlz5ojsTfKlvHz5EtnZ2Wjfvj2/6JOkp6cjJyen0jErcbG1tYWysjJ27txZ4d1VZmYmpk2bBl9f3xpP7CQEoAUlvxlbtmzBmTNncO7cOX4RAODx48do27YtUlJSKhxwLTVixAgoKytjx44d/KJqRUVFIT8/HyYmJpUORJcqKirCgAEDcP78efTr1w8mJiZo0qQJkpKSEBISgoiICCxduhQrVqzgNy2nqKgIT58+haysrNg/rKOioiAUCmFgYFDtgH+rVq1w+PBh7mm069evw9vbG9u2bePqbNq0CSdPnqx2leLc3Fxs374dp0+fxpMnT5CbmwsdHR2YmZlhwYIFIqtEV+Ts2bOYMGECJCQkcODAAdjY2HBlly5dwtixY/H+/Xts27YNI0eOLNNSVE27v3R1dbFw4UJ++KM8fPgQWlpaaNCgAb+I1CVlb1tI/bVx48Yq56kUFxczPT095uzszC/iXL58mUlISLDTp0/zi0QEBgayPn36sCFDhrBTp06x5ORkpqenx3WBGRoaVjtDfuXKlUxBQaHSbpq9e/cygUDALl68yC8Sce3aNda8eXPu/21hYcGSk5P51aoljhn1kpKSInNzjhw5wtq0aVOmRvXvE2OMvXz5kmlpabGGDRsyFxcXtmzZMrZ27Vo2bdo0pqWlxWRlZdmpU6f4zcpJT09nY8aMYUKhkM2bN49lZWWx+fPnM4FAwOzs7Gr0e7KysmIWFhbcoaury2RlZUViFhYWbMaMGfymHE9PTzZixAiR2Jw5c9jVq1dFYvLy8uzy5csiMVL3UFL5RtTkw+rWrVtMUlKSWVtbs+DgYJaamsry8vLYgwcP2JIlS1iDBg3YuHHj+M1EXLlyhQFg1tbWbMyYMUxZWZn16dOHWVtbs/v377PIyEhmZGTEBg8ezG8qwszMjK1atYofFjFgwAA2Z84cfphTWFjITZY8fvw427NnD1NRUWFjxozhV62SuGbUiyup9OrVixkbG4vMYC+Vn5/PJk+ezJo0acJSU1P5xRU6ceIE09TUZLKyskxFRYX5+fnxq9RYRddUnVWrVpWbHGloaMgOHjwoEqOk8nWgp78Ix9TUFGFhYZg2bRp69+4NoGQOB2MMcnJyWL58uchTUxU5cOAA+vbti7NnzwIoefzW2dkZQUFB0NfXBwDMmjUL8+bNK9usnOjoaO4Jq8qYmZlVObbz7NkzxMfHY+/evbC2tgZQ0s23f/9+0YrV2Lt3L4YNG4Z9+/ZxMT8/Pzg4OGD06NEAShbAbNq0KeLi4sQ2vlKRd+/e4dKlS7h69SpUVVX5xZCSksK2bdtw+PBhhIaGikzarMzr16+Rk5MDSUlJFBUVIT8/n1+FkBqjGfVEhJmZGW7cuIHY2FgEBgZi9+7dCAsLw6tXr7BgwYJqx0ISEhJEBtBLHwcuO3/DxMSkyhnsAFBQUAB5eXl+WISCggIKCgr4YU5ycjKEQiEsLS25WM+ePT96SX1xzKgXl5iYGDDG0KlTJ34RR1paGsbGxoiOjuYXiXjx4gX69OmDqVOnYvbs2Xjz5g3c3Nwwfvx4DBky5D+v4Ey+TXSnUg/MmjWr2sHSO3fuVJsQSgmFQrRv377Sb9wZGRkVPjEEVLxkDCA6a726AW1xEgqFIhM1a/o7KEscM+rFpXRpluoGq6tLuAcPHsS0adOgqamJ0NBQ7ovAypUr0a9fP7i6usLAwABbt27l7sYIqQlKKvXAjRs3ajSr2dDQkB8SkZubi02bNuHOnTswMjLCpEmT0KxZM5w6dQoPHjzA27dvERkZia5du2LZsmX85mL3448/Vpq8gJLurc8xa1xcM+oBYPbs2WjUqBGAkjuply9fwtbWlit//vw5t4d9bdq/fz9cXV2xYcOGcomwe/fuuHv3LmbNmgVXV1dKKuSjUFKpB65fv84PfZIRI0bg1KlT6Ny5M6Kjo+Ht7Y1hw4Zh06ZN0NLSgqysLFq1alXl7HMAOHXqFFJTUwGAWzRy6dKl3DIrycnJXN3K2NnZVXv3ZWRkBAMDA35YRFFRkcjjsqV3HWVjADBu3DiMHTtWJFZKXDPqnZycRK6pdO5OWSoqKtzYU2WKiorKrRnGFxkZWeX7tHPnTujo6PDDHAUFBfz1118YOHAgv0gE/5Hi+Ph4JCcnY/z48WVqVf9I8e3bt0WS67Nnz7BmzRqRcayyd4uk7qKkUg8cOHCgRhPUNDQ00LdvX34YAPDmzRv8/fffOHz4MBwcHMAYg7OzMzZu3IiAgADY2dnxm1RIR0cHN27cEFkipkOHDoiIiPi30v9jVTl06BA/9NFUVVW5u4tSzZs3r/COTVFRkR/i9O7dGwcPHsTGjRvx8uVLjBs3jnvQYPfu3Zg+fTq6deuGPXv28FqK8vb25oc+WpMmTWBvb88Pl2NlZVVlcnry5AlCQkL44Y/2/PnzcnfJpqam5VaxLr07q4i+vn65hUIHDx4s8hoAHB0doaamxg+TOoYmP9YDUlJSKC4urvKDESjZ6vXEiRP8MADg5s2b+O6775CXlwdpaWkAJclq5syZSEtLq3QByS+tqvGdz0HcM+qBz3NNtra2CA4OhqKiIoTCqp/XqW7rZ0LKojuVeqBv374ICgpC69atMWLECDg5OVW4KGRVCgoKICkpySUUoGTZcgUFBbEnlLCwMHh7e2P79u38IhH79+/H6dOnoaGhARcXF5ibmyMyMhJXrlxBZmYmEhISkJCQgODgYH5TACXfxq9du4bhw4dDSUmJX1xj+/fvh6GhIUxNTflFHz3+UVeuydLSEhEREVBUVISzszOcnZ2r7C6rTlJSEt69ewcdHZ1K94L5FImJiXj69Ck6duwIBQUFfjGpi8rMWSFfsbS0NLZ7925ma2vLJCUlWdeuXdmWLVtqvEhhSEgIk5SUFIkdOXKENW/eXCT2qWJiYtiSJUuYtrY2A8AUFRX5VUR4eHhwM9XNzc2ZrKws8/DwYEKhkKmqqrK2bduybt26sXXr1vGbciIiIphQKGQyMjLM3t6eBQQEsNzcXH61ag0ePJgBYO3atftP+7/XpWtijLG8vDx2/Phx5uLiwhQUFJiOjg5bvHhxjRb8LJWUlMS6devGrSzQvHlzdv36dX61akVHRzN7e3tmY2PDtmzZwoqLi5mDgwN33iZNmrCgoCB+M1IHUVKph968ecN+//13ZmNjw6SkpJiVlRX7/fffK5yBXao2kkpSUhLz8PBgnTp1YgCYtLQ0c3BwYAEBAdVuU6ynp8fc3Ny416WrAc+cObNMreq9evWK/fbbb6xHjx5MKBQyJSUlNmHCBBYcHFzj/e4LCwvZxYsX2dSpU5m6ujoDwDp37sw2b97MkpKS+NUrVZeuiS83N5cFBAQwJycn1rBhQ6anp8fc3d0r3R651OjRo5mamhrbu3cvO3bsGOvYsSPT1tb+qJ8jPT2dKSsrM11dXTZx4kSmpaXFhgwZwpo2bcquXLnCHj9+zEaOHMlUVVWr/XdDvjxKKvXcq1ev2IYNG5i8vHyVy3+EhIQwAKxLly7c0bZtWyYtLS0S69KlC9u9eze/Oeft27ds7969rHfv3kwoFDJpaWk2ePBgNnr0aNalSxd+9Uo1aNBA5Jvp8+fPGQCRPdk/VumHsZWVFRMKhUxDQ4PNnj2b3bx5k1+1UkVFRezSpUts2rRpTENDgwmFQtarVy+2Z88elpGRwa8uoq5eE19OTg7z9fVlrVu3ZtV1ZjRr1owtW7aMe33u3DkGoNp10Mry8vJiTZo0YdnZ2YwxxhISEpiUlBRbvHgxV+fx48cMAPvnn3+4GKmbqh6hI1+twsJCnD17FgsXLsSKFSugpKSEQYMG8atx1NXVMWnSJBgaGnKHlZUVxowZIxIzNDSs8gkcBwcHfP/995CUlMSePXu4p8pKl32pqYKCApH5E6WPI/+XAWwNDQ24ubnh8uXLSEpKwtKlS7mJf9XttlhKKBTC2toa27dvx8uXL3Hx4kXo6upixowZIvNWKlJXr6ms27dvY9myZViwYAHevHlT7uk5vuTkZG4JHADco9ofs2pBQkIC9PX1ud9H8+bN0bx5c5E5Pzo6OpCTk6t2JQby5YlvRI18ccXFxbh27Rr8/Pxw+PBhCAQCODg44MSJE7C0tKzyKZ82bdrgzz//5Ic/mpSUFIqKirg5BeIe5BeHvLw8hIeH4/Lly7h37x4aNmz40QPuAPD06VNcvXoVFy5cwPv37yt8VPlz+S/XFBMTAz8/P/j6+iIhIQEDBgzApk2bMGjQoGpn7gOiqxR8yooF/FUYgJKVGPgrL/Bfk7qJkko9cPPmTfj5+eHQoUPIzs7GsGHDcPDgQfTu3VusT+LUxLFjx3DmzBl4eXlhypQpcHNzg729/Rd/cqe4uBiXL1+Gj48PAgICkJWVhZ49e2LXrl2ws7Ordp2xUq9evYK/vz98fHxw8+ZNaGpqYuTIkfD19a127o24/Zdrio+Ph5+fH/z8/HD//n307t0bS5YswbBhw6p9NJ2QqtA8lXqgdJ6KtbU1+vfvX+m3y2bNmmHYsGH8MAAgIiKixhMc586dW+1qxUDJ7PXDhw/Dy8sLISEhkJWVxYgRI+Di4gIbG5sq75ykpKTQrl077gOuoKAAkZGR6NChA2RlZbl6nTp1qvLR5IiICPj6+sLPzw+vXr2CoaEhXF1d4eLiUuNv8pmZmQgMDISvry8uXrwIWVlZDB8+HK6urujdu3eN78bq0jWVzlMxNDSEvb19hSsel3Jzc+OHOFJSUjAyMhJ5vPny5cswNTUV+SLRoUMHbN68mXtd1q+//opdu3aJTOrcv38/unTpIjL/Z/v27Th//jysrKy4GKl7KKnUA23atCk3q7kiXbp0ga+vLz8MoKRf+6+//uKHK2Rtbf3Rf9jx8fHw9vaGl5cX4uLioKmpiaSkJH41zg8//FDtMi0A0L59+0qX0Q8NDYWFhQU0NDQwatQouLq6ftLdhK2tLS5evAgbGxu4urrC3t6+yruAytSlaxo9ejRCQ0P54QpVtfLy2LFja3RNenp6WLx4MT8MoGRVgqqSaFm7d++ucL4QqTsoqZDPLiIiAl5eXti6dSu/SKxevHiBBw8ewNbWtsZ3ExU5ceIEOnXqVOO7gNokrmsipLZQUiGEECI2lXdqE0IIIR+Jkko9VdP+8urUpfOI4xxA3TqPOM4BAPfu3eOHPok4fh5xnAMQ33nI50XdX/VU6d7y/1VdOo84zgHUrfOI4xxA3TqPOM4BiO885POiOxVCCCFiQ0mFEEKI2FBSIYQQIjaUVAghhIgNJRVCCCFiQ0mFEEKI2FBSIYQQIjaUVAghhIgNJRVCCCFiQ0mFEEKI2FBSIYQQIjaUVAghhIgNJRVCCCFiQ0mFEEKI2FBSIYQQIjaUVAghhIiNJD9AvqyUlBScCwrihz/JQW9vfuiT1KXziOMcQN06jzjOAdSt84jjHID4zvNfNW7UGAMHDuCHSQVo58c6pLCwEM2aNYfH1p1op6vHL/4oSS8T0bRZc374o9Wl84jjHEDdOo84zgHUrfOI4xyA+M4jDuYddGkXyhqipFJHFBYWom/ffpg9bzHMu3TjFxNCviAN5QaUVGqIxlTqgNKEMmHydEoohJCvGo2p1AErV/0KU/Ou6N2nH79ILIYP6oMt2/9Ay5at+EUVysp6i+fxz9CuvR5kZGSQkZGOi8Hn8PTJExh36Ii+/Qbym5STm5sLb6+9iIt9AD19Q4x0GYsGDRpw5Y8exuHggb/gvmpdmVa1hzGGkGtX8OTxQyS/fo28vA9QU1NHy1basOnVB7KysvwmFUpLS8XZUyfw8mUi0tNSodSoMdQ1NNC1mwX09A351SuUk5OD2AfRaKndGioqqigsLMSJYwEIDw+BllciBhQAACAASURBVFZLuI6biEaNGvObcZ49fYJZ0ydj3ITvYecwgl/8UYqLi3E9PATGxh0hr6CAwsJCHPI9iH/u3ELjxk3Qb8AgdDI14zcT8fpVEpQaNRZ5f69duYQLwefwITcXHU07w95xJCQlP+3jxt/vIJ4+eYJFPy/jF5E6iLq/vjB3d3e8zyvE3Pk/84s+yoP791BQUMAPAwD697bEjj/2Qbu1DuTlFaDTpi2/CmffX39g6U/zUFBQgIYNG8L3yN/4cdY0pKakQF1DA08eP0K/AYOxe58Pvynnw4cPGGDbA4kJL9BeTx9370RCT98QAcfPQl5BAQBw6cJ5jB4xHC9TsnmtxS887Brmz5mOx48eollzLTRurAyhUIjMzAwkvUyEnJw8VqxeD+eRrvymIn7z3IQNa1eiUWNlvH+fg3dZWWjXXhfZ2dlIepmILl0t8Oc+b6iqqvGbcm5eD8N4V2ekpaUCADZ5/o779+4i8MghdOhkirjYGABA0KWwSs9zPzoKvXp8hxYtWsKkoynWbvREkyYq/GrVysvLg4vTUIRcu4Lb9x5BXUMTdoP74l7UHZiafYd3WVm4+89trFq7CRO/n8pvzmnXSgPrPbZhmJ0jAGD9mpXw2LAahkYmUFFVxd07t9GiZSscOxUsknjKSktLRWLCC34YAOBzcB+ePHqIpe6rAQBt2rSDnLw8r1btou6vmvu0rw5ELLy9vXHx8lX4B57iF320iWNH4tnTJ/wwZ8qkMQCAbt0tEXii4qfLXiYmYOlP8zB+0hSMdBmD8LAQOA0fCOMOnRB0KRwNGzZEXGwMBvTpgQvnz6GXbV/+KQAAvt77kZ6ehtCIKKiqqiHlTTIG9bOB+7KfsMHjN371CuXn5+PRw1h+uEJqaupQVVPnhwEAGRnpGOfiBDsHZxw5dgYamk1FyrPfvcPRAH/8NH822rbTrfRb+dXLF7Fx3Soc9DsKSysbFBUVwf2Xn5Dw4jn2eh3Ck8ePsHzJQoywH4zgK9chEAj4pwAAzJ01FV26WWDh4mV48TweE8Y4o4mKKkIjotCkiQo+fPgAx+EDsHXzBqxcvYHfXETgySAc2LsH3c2MMXX6LHw/ZQYaNmzIr1Ypb6+9eHA/GkGXwtC0WXMcDfDHw7gYXAm/DS2tlgCAowH+mD19MobZOdYocb1MTMCWTWuxfddfsHccCaDkztducF9s27IRC35aymtR4sqlYEybPJ4fFtG3Z3cAQOCJc+jWvQevlNQVlFS+kNDQUPyx+y/4+B/nF32SI8fOwO2HCUhPT4WH5+9o1lyLKzM1bodDASfRpm07SMvIlGkl6p87kWjUWBnLVqyBhIQE9PQNseePHXBwHMl9WLXX1UO//oMReetmpUkl5kE0Bg+1475pq6qp468DfujbszvGT/wB+gZGvBblZaSnYYTDEKS8SeYXlTNv4c+Yt3AJPwwAuHkjHPIKClizYQu/CAAgr6AA13ETcefOLVwMPldpUrl8KRh2jiNgaWUDAJCQkMDPv6yEjpYKXr9Kgk6btthzwA+6rTURFxsDXT193hmA9PQ0PH70EPsOHkabtu3Qrr0uzLt0g6GRCfeBLSsri5EuY+FzcJ9o4wrISMtg8VJ3DBoyDMuXLMSuHdvgOMIFI13GVvj/54uNuY9+AwfD2KQjACAuNgZWPXtzCQUAhts7YeXyn3Hv7j+w7tmbi1cm+t5dNG+uxSUUAFBUVMLY8d8j4LBfmZqi7BxGIPtdNtyX/YTvf5iOMeMmcon5z13bERf7ABs3bwcANFFRLduU1DE0UP8FhIaG4uclv8DH//gn9zPzNWuuhcAT52Dn4IwxoxxwPSwEmk2bQbNpMwgEAqiqqUOzabMqv21KSEigQYMGkJCQ4GJ9+w9Cez3Rx5sZY5CQqPyfjoaGJhJePBeJGRgaY5TrOCxeMLdG3QjqGpq4E/0Yw+wcoaTUCBF3Yys9Jk+dwW/OkZdXQE52NvLz8/lFIt5mZkJevqRrrlK8n1sgEEAgECA9PY2LSUlJI+llYpla/5KRLknobzMzuFhmRgbev8/hXgNAbu77Go/xAICxSUcEngiC544/8eD+PVh3N0Uno7aYOnkcEhJE34ey9A2MEBcbg+LiYgBAax2dcj97Tk4OMjMzoKpWcVccn7yCIor+f76yMjMzICUtxQ+LGDN+Es6cv4ags6ewaN4sSEpJQbNpMygqKqJBg4bcv2dpaWl+U1KHVP7JQGpFSkoKJv8wBdv/2Ce2hFJKKBRi9o+L4OUbgDW/Lse0yeORlfWWX61SHTqa4k3ya3h6rOM+KH9xX40uXS24Ovei/sG5sydh2vk7LsZnZdMb58+dxpZNa/GiTHJZuuxXvHgRj5nTvsfLxIQyLSomKSmJaTPmQEJCAlpaLSs9FBWV+E05pp3NoaaujmGDbHHy76NIepmI3Nxc5OfnI+VNMq5dvYyZ077HtSuX0G/AYH5zTs/efXHE3xdnTv2N4uJi5OTkYNnPC6Ck1Aht2+ki5U0yFsydjqLiInToZMpvDgCQk5eHhaUVFvw4Ez4H92PBjzPw+lUSjgcewc3rYQCAJ48fYedvW9DDuievdfVs+/TH4aOnEX4rGhO/n4rUlDdIfvWKX40zeKgd0lJT4OI8DBeDg/BdVwt8yM3F+jUrkZDwHNH37mLSuJFo1ao1dPUM+M1F7P5jB1a5L8HTx4/wLisLfj5eXFnMg2j4HNyHLl1Luq+q0q69Ls4EX0NL7dboaWmO80Fn+FVIHUcD9Z9RSkoKbHr2wqHAU1Cp5Vv47HfvsGj+bFwPC0Fi4gtcDo2sUZdI4BE/LJw3C++ysvAkIRVycnJcmcOw/gi5ehljxk/C+k3byrQqz/vAXiz9eT7e5+SInOfpk8dwHWmHJ48fQUJCotqB+ry8PBzYtxvf/+DGL6qxxMQXWLvKHccC/VFYWMgvhoWlFX5etgodO3XmF4nYtP5XbFq/GpKSkigoKICCgiJ27j6Anr374K/dO7F541p4/vYHevbuw2/KeZmYgJnTJiE8LAQtWrbC7n0+iIy4iYXzZqKhnBze5+TAooc1vA8dg0wlXZWlA/X3YuMrHUuqqYSE5/h1xS849ffRcg96CIVC9B84BKvXeUBdQ1OkrCyfg/vx6GEsnj19gvhnTxD/7Ck6mZoh8EQQst+9QzttDZh06IRjp4IrvaaKXAwOwqzpkyEjLYMOnUyrfDikttFAfc1RUvlMcnJy0Lq1Dk4GXUGLFv/2Wde2Y4GHcfN6GGbNXVDlB0NZOTk5iIt9AJMOnUS6wnwO7odWi5awsLSqdCC6rJycHDx7+hj6BkYQCv+9KS4uLkZoyFU8fhSH8RN/KNOidmVmZuDF83i8fv0KBfn5UFNTR4uWrWr8ewFKHue9FXEdsrIN0LW7JfflICvrLeTlFUSusyqFhYUid6rxz57iengotFq0RLfullX+ft9lZSE05ApsevX5qA/pqmRmZiD+2VO8eZOM/Lw8qKmpQ7u1ziclLcYY3r7NRKNGjZGXl4fgoDOw7Tvgk7qtUlLeYMe2zWjTtj1cXMfxiz8bSio1V7O/APKfFBYWYvDgodi9z+ezJhQAGGbniJgH9/EhL49fVCk5OTl0MjUTSSj+fgfx4nk8LHtYV/mBV5acnBwMjUxEPmiXLp6PM6f+hmUP609OKDEPojF6xHB+uFqNGjWGsUlH9Ok7AAMHD8OzZ0+wd88f/GpVatCgAQyNOmDQkOFQUVHF8/hn+Gv3TuzdswtRd+/wq1coLy8PcbEPkPn/sZWCggI8fvQQL57HI+HFc+Tm5vJaiFJQVES/AYORl/cB96L+Qd7/39uMjHQEHPbFhrWrcO5szZ8ofP0qCa+SkmDSoRP69B0AI+MOiI6Ogo/3fvxzJ5JfvUJ5eXm4Hx2FzMwMCAQCyMnJIzjoLDw91uPdu3cV3iFWJCvrrcg1SUpKwtDIGEkvEz/qmsiXI95OfVJO6Wz5OfNrd/mVquap3LgeijuREcjMSK9ynkpVcwUib93Ek0cPcfef2wCqnivw/Hk8MjPS+WEAwK2b1yElJYXmWi0AACYdOvFqlMjLy0NszH1+GAAQfS8KN66HcT+LhoZmpXcb4romxhhmuU2Gv99BAEBrnTbYuv1POA4fgMbKTSAtLY21q5Zj5ZqNmDR5mmjjMiJuhGPC2JFIeZMMoVAI91/X40F0FAKPHIJ2ax28ePEcWzevx6mgK2jcWJnfnFPdfCJPj3XVzieqj9dE6gBGatX06TPY/EVL2Ov03Fo9tFvrMADVHt26W5ZrW3rs+GNvufqVHYEnzpVrX3q4jBlfrn5lB79t6REZ9ZAJhcJy9Ss65i38uVz70kNc17Rz9wEmIyPD1m/axq6E3WajRo9l0tLSbPLUGVyd33buYbKysuzB48Ry7UuPNm3bsZ69+7ATZy6yQwEnmYqKKmvcWJlF3I1lr9NzWdyzV8zYpCNzmzm3XNvSIzLqIZOSkmKTp85gl0Ii2Or1m5mMjAwz+64re5qYxl6n57IrYbeZnLw88z50rFz70qM+XlNtHQB9VNYUjanUInd3d+R8KMSPC/7bbPmaeJmYUON5KlU9Vnxg7+4azxWorI88NzcX7ksX4WiAP9Zu2IIu3f59euyHSWNg07M3RowqmYyp2bQZV8Z3PTwEbj9MgKGRCZatWMPNxr5z+xbmzJiCy6G3AAAKCorcTP2KiOOafl44F2/eJOPPvSVLsb9Jfg1jPW1cu/4P2rZrz9XraNgG237fAwtLKy5WKjMzA7qtm+JK2G20//8q1PPnTkfW27fYteffp6W8vfbhsJ83jp06z8XKOnXiGBbNn41/7j/huii7mxtj8pQZGDvhe66e2w8T0LKVdqUTDuvjNdUWGlOpORpTqSXbtm1DVPSDz5JQAPHMUwHEM1egQYMGWLvRE1t3/Imli+dj754/oKKqBs2mzSAjIwOlRo2581SlS1cLXLx2EzIyMhjr4oDU1BRoNm0GFRVVSEhIcOeoKqEA4rkmoYQE5Mt0jTVRUYVtn/5QUxcdyGZVzOEpTWZlz2P+XVeRpAsAqOIcgPjmE9XHayJfHr07tSAkJBRHAo9h6449/KJa9V/nqZQS11yBvv0HIfjKddy5HYGBfazw+NFDfpVqKSk1wh9/HcS0GXPhMLQ/tm3ZiKLiIn61av3Xa+razQLHjwXg3JmTyMnJgYSEBLz8AqGk1Iir431gL1LeJMPYpOJxIiWlRtDTN8TSxfPxMjEBRUVFcHR2EXlgISXlDfbu2VXlPCBxzSeqj9dEvjxKKmIWGhqKJUvFO1v+Y5mafYeLV29CKBSip4U5ioo+/kNYRkYGK1dvgOdvf2DuzKk4uH8vv0qNaGg2hX/gKQyzc8QA2x6IuR/Nr1IjI13G4EzwNZz8+yhmTp3EL66R/3JNAwYNhevYiRjv6gy7waLzUNLT02Ck2wrz5rhh644/Reb28G37fTdiHkTD1LgdLl4QXYNt/ZqV6GTYBlJSUpgxe55IWVkamk3hsfV3/LbVA/ptmiMnR3RGvsOw/rC17gp7xxFVLq1SH6+JfHk0piJGKSkpMDQywsVrEbU+ubGmPmWeCp+45grc/ec2Dvl4YfAwO3TtZskvrpGCggLs3O6Jt28zsWTZKn5xjX3qNaWmpiD59SsYGBpzsZzsbPh474dlD5saTTAtLCzE40cPoaqmJtIdeTE4CDk52ejdp3+lq/mWJa75RPXxmsSNxlRqjpKKmOTk5KBLl67w+wyz5QkhnxcllZqj7i8xSUlJga6eHiUUQsg3jZIKIYQQsaGkQgghRGwoqRBCCBEbSiqEEELEhpIKIYQQsaGkQgghRGwoqRBCCBEbSiqEEELEhpLKZzLCYTBSUt7ww4SQb9iDBw+gpaVV6XH9+nV+kzrvy6x4+I05fMgbly8Go7CSnRkJId+mgoICJCYmYt26ddDR0eEXo02bNvxQnfdZk0rXrl0hISGBS5cuQUpKSqRsyJAhsLGxwZw5c+Dr64sFCxZg2LBh2LZtm0g9ADh27BhmzJiBXr16Yd++fQBK2hsYGGDNmjUAgN69eyMuLo5rIykpiVatWmH69Omwt7fn4rXp6JFD2Lj+Vzx5/IhfRAj5TJJeJmKLxzrExjyAsnITDLd3wtDhDlx5bm4utm/dhOvhoZCQkIBlDxt8P2U6ZGRkypyldvXq1Qumpqb88Ffps3Z/vX79GqGhoVi/fj2/CCkpKcjKygIAvH//HomJifDy8kJ+fj6vJuDr64vExESkpZXsuwCUtM/MzOReJycno3PnztiyZQu2bNmClStXokWLFnBwcMDZs2e5erXJyKQjli7/FSt+LX+9hJDal5OTgwF9rBDz4D6G2TlCQUER0yaPg7fXPq7OlElj4Ot9ADY9bWFgaIzfPDdh7syp/56EfJTPeqcCAN999x1WrVoFJycntG3bll/Madq0KQQCAc6fP4+BAwdy8dzcXJw6dQrm5uZlaldMV1dX5K5k9OjRiI6OxpEjR9CvX78yNWtHm7bt0KZtO9yPjuIXEUI+g5N/B6KwsBD+gadKlt6fBLx9mwlf7/1wcR2HhITnOHfmJIIuhcHYpCMAQF1dA+6//IRNnjsgKyvLO2PtiIuLq3D/JWNj4y+y1P9/8VnvVABg7NixMDc3xw8//LszXEWEQiEcHBzg7+8vEj9z5gw0NDTQsWPJP4CPJScnBzU1NX6YEFIPSUtJY6TLGJG9XPQNjFDw/x6Q7Hfv0G/AYJG9ZPQNjAAA+fl5XKy2ubi4oEOHDuWOinpq6rryqbGWCYVC7Nq1CyYmJti3bx/GjRvHr8JxdHTEwIEDkZ+fz+0ffuTIETg6Oop0dVXm1atXiIyMBAB8+PABFy5cwLNnz/Dnn3/yahJC6qPhDs4YDmcAQELCczyKi8MhXy9Mmz4bAKCnb4h9B0u+uKakvEFiwgt4bFiDPv0GQlFRiTtPbQsNDa1wTOVzjuuIy2e/UwFKuqUWLVqEefPmISUlhV/M6datG+Tl5REUVLJF6YcPH3Dy5Ek4OjryalZs//796Ny5Mzp37gwLCwssW7YM5ubmUFH5d2c6ABg1ahQEAsF/OrS1tfHg/n2R8xJC6g4zE12MchoKNTV12DuN5Bfjhwmj0b+3Je5HR2H+oiX84nJ/859y+Pj48E8LoCR5VHR8jb5IUgGAxYsXQ0VFBXPnzuUXcQQCgUgX2Llz56CqqopOnTrxalZswYIFKCwsRGFhIQoKCnD16lW8evUKzs4l31xK+fj4gDH2n45nz55B38BA5LyEkLojITkLITfuomFDOYwZ9e/TX6UOHzuDqJhncHQehSEDeiEjI12knP83/ynHqFGjRM5ZH3327q9SMjIy2LlzJ3r27IkxY8bwizmOjo4YMGAA8vLyuK6vmhIKhSL7XFtaWmL58uUYMGAAMjIy0Lhx4zK1CSH1zaukl5Bt0ACNGytDSkoKbdq2w+Kl7hjcvydSU1MgISGBD7m50GzaDBISElBT18CK1Rvg7bUXodeuYNCQ4fxT1op//vkHHz584IehpaWFFi1a8MN12hdLKgBgbW2NcePGYcqUKZCXl+cXAyjpAlNQUMCJEydw4sQJXLhwgV/lo2RlZaGoqAgCwdf1RAUh5OMtmj8biopK2Pb7bi5W+rdfkJ+PwOOB2PX7NkRGPSxXnpdX/kO+tkyaNIkfAgAsWbIEK1eu5IfrtC/W/VVq48aNePfuHaKiKn7strQLbO7cuVBWVq5wMKsyCQkJCA0NRWhoKEJCQrBp0ybMnTsXgwYNQqNGjfjVa42BoTFep5d8GyKEfD42vWxx6uQxxDyIBlAyJWHrlo1or6sHzabNYGnVE0kvE+Hn48W12bZlAwCgS1cLLlZbTExMynWRlT2+toQCfOE7FQBQVlaGh4cHXF1d+UUcJycneHp6YsGCBfyiKnl7e8Pb25t7raKign79+mHr1q1lahFC6qux479H9L276NXjOzRvroXUtFSoq2tgz35fAICevgG27vgTs9wmY82qZSgsKEB+QT42b9uFZs21eGcjNSFgjDF+kHy8+Ph4zF+wEL/t2s8vIoR8YW+SX+Ne1F0oN2kCA0NjbopCqZzsbNy5EwmBQAAjY5NyjxNrKDcAfVTWzBe/UyGEkNqmpq6BXrYa/DBHTl4eFpZW/DD5BF98TIUQQkj9QUmFEEKI2FBSIYQQIjaUVGqZ94G9mDRuFIYNtMXypYvKzdIlhHy74uPjy+32qKWlBTMzMyxcuJDbDsTd3R26urooLi4Wad+tWzfY2NiIxIqLi6Grqwt3d3cAJXtLlT23trY2bGxsEBAQINJOXGigvhb98vMCHNj7J36YNgvdLHpg355duHD+LIIuhYusmkoI+TYVFRUhMTER7u7uMPj/Mk9FRUWIi4vDunXr8OzZM/j7+8PIyAjLly9HTEwMVy8+Ph7h4eEAgKSkJDRt2hRAyRbFcXFxMDYuWXm5dG+p0aNHAyiZq3P+/Hk4ODjgzJkzYt8GpE4klSdPnsDa2hp//PEH+vfvzy+GhYUFrK2tsWrVKuzbtw9Lly4VKVdWVkbXrl2xfPlyaGiIPuGRmpoKU1NTyMjIICoq6rPtj5CenoY9f+zA1h1/wt6xZPG6wUOGo7NJe5w+eYyLEUJqV3U7PwIlPQqXLp5HakoKOnQyxay5C9C4sbJIndpkZWUFKyvRp8+Kioqwdu1aFBYWwsrKCgKBAGFhYVxSCQoKQrt27ZCVlYWgoCBuxffw8HAIBAL06NGDO9fn3FuqTnR/6ejooHHjxiITFUvdv38foaGh6NWrF4CSndySk5O5HR03b94MV1dXHD9+HP3790dRUZFI+8OHDyMtLQ1PnjzB6dOnRcpqU8KL55CTk0cv23/fMFU1dTRRUcWL5/H/ViSE1Jqa7Pz4y88L8POiudBp0w5DhtvjYvA5DOnfE7m5uf+e6Ato1qwZZGVlIRAI0KRJExgZGSEsLIwrP3/+PPr06YM+ffrg3LlzXDwsLAxGRkZo0qQJF6tIbe0tVSfuVICSTWpWrVqF3Nxcka6hwMBAqKuri2RxCQmJcvvM6+npYdCgQbh7967IKsY+Pj5wdHREfHw8/Pz8YGdnV6ZV7THp0AkP41+LxCIjbiDpZSI6dOwsEieE1I7qdn6sqz0KKSkp2LdvH4YOHcotimtjY4MzZ84AKBk3uXjxIv766y9kZ2dj1qxZKC4uhlAoRHh4eLm7j8+5t1SduFMBgJEjRyInJ6fc3URAQACcnJwgFFb9o2prawMoeTNKvXjxAqGhoXBxcYGDgwNOnjyJd+/eceWf07kzJzHCcQiGDLOHTS9bfjEhpBZUt/NjXelRGDp0KFRVVaGqqgplZWWoqamBMYadO3dydWxsbPDw4UOkpqbi1q1bePv2LaytrWFra4v09HTcvn0baWlpiIuLg7W19b8nR833lhKHqj+pP6MWLVrAwsIChw4d4mJPnz7F3bt3y+1/wpeSkoJNmzZBSkoKRkYlW4ECgK+vLzQ0NNCzZ0/Y29sjLy8Pf//9d5mWJWpzk67k16/gOsIOUyaNwfRZP+L3P2kZF0I+l+EOzvj5l5JFGRMSnuNicBAO+XrB4f+bdJX2KDRq9O82GJX1KPD/5j/lqGyTrvnz52P37t3YvXs39uzZgzVr1uDu3bsiSaVHjx7cncj58+dhbm4OJSUlqKmpoWPHjjh37hyuX78OgUB0PAWo+d5S4lBnur+Aki6wOXPmIDs7G/Ly8ggICEDz5s3RrVs3kXp5eXnQ09MDUHIb+OTJEwgEAnh6enJPQAAlXV+jRo2CUCiEhoYGunfvDl9fX7i4uHB1SutV9mbXVOnaX2VF37sLh6H98V3X7gi5cZcWqCPkCzIz0QVQkkgq2vkRKOlRmD51YoU9CrW59peFhUW5gfrnz58jICAAc+bMAQA0btwYJiYmCAsLQ3h4OHr37s3V7dOnD4KCgvD+/XsYGxtDWVn0IYPPubdUnblTAUo25CosLMSJEycAlHR9OTs7QyAQ3ftEUlISixYtwqJFi7B48WL4+Pjg0aNHmDZtGlfn/v37iIqKQk5ODjw9PeHp6Qk5OTkEBQUhPb3254oUFhZirIsjHJxGYr/3YUoohHxhVe38WBd7FLS0tJCWliYSs7GxQVBQEMLCwkSSSt++fREeHo5z586Vm7dSmdraW6pO3akoKyujf//+OHToEHr06IGbN29i27Zt/GqQkJDA2LFj+WERPj4+UFRUxOPHj/H48WMAJd80CgsLERAQgO+//57XQryuXr6Il4kJ0NM3xNnTJUmyVHtdfWi31hGJEULEr7qdH1VUVOtsj4K8vHy5L8DW1tbw8PCAnJwcunbtysW7desGGRkZREZGlptyAfy7txRQ8jl448YNeHp61sreUnUqqQAl4xtjxozBX3/9BW1tbZiZmfGr1Iivry8mTJiAzZs3i8S7d+8OPz+/Wk8qT548goSEBBb8OINfhKXLf8UUt1n8MCFEzKrb+bFsj8KqtZu4OnWBoaEh3rx5A39/fzg5OQEoGVeRkJCAlZUVpKSkuLrS0tKwtrbGqVOnYGlpycVLfc69pepcUhkyZAhkZGSwevVqri/xY4WHh+PZs2cYMWIEvwjOzs6YM2cOXr16BU1NTX6x2Hz/gxu+/8GNHyaEfEY2vWyxYtliTJsxG3r6huV2frwYHPRFexR0dHQqHavp2bNnuTIlJSUUFhaKxEqVDhvw3bt3jx+qVXUuqTRo0ADDhw/HgQMHPvnJBB8fH7Rq1QrfffcdvwiOjo6YM2cO/P39MWsW3S0QUp9Vt/Mj9SiIH+38KCa08yMhdVd1Oz9Wh3Z+rLk6d6dCCCHiVt3Oj0R86tQjxYQQQr5ulFQIIYSIDSUVQgghYkNJpRbl5uZi47pVcBjWH872g/Cb5ybk5eXxqxFCvkGMMZiamuKXX37hFwEoWQ+sdMuPXbt2ieze2LJlS/Tr1w8bWBkbkQAAIABJREFUN24st93HuHHjROq2bdsWjo6OOHr0qEi92vLFk4qbmxtsbStetTcwMBAtWrRAamoqoqKiym252b17d8ydO7fcrNOPeQNq05RJY+DrfQA2PW1hYGiM3zw3Ye7MqfxqhJBalPQyEQt+nIEhA3ph3GgnHD96hF+FM8JhMFJS3vDDtUIgEKB79+7Yu3dvuSfLiouL4eXlBQsLCwBAdnY20tPTuX2kVq9eDRMTE6xYsaLcPlJpaWnQ1NTk6i5atAhycnKwt7fnthiuTV/86a9evXphx44dePToEdq2bStS5uvrC21tbaioqOD58+dITEzEhg0boK2tjaKiIjx69Aj79+/H0aNHcfnyZbRs2RLAv2/AgQMHAJTsHxAVFYUVK1YgKCgIZ86cEVlcrTYkJDzHuTMnEXQpDMYmHQEA6uoacP/lJ2zy3PHZdqAk5FtWukmXVouWGG7vhDuRtzBt8jhkZ2fDxXWcSN3Dh7xx+WIwCgsKROK1ycXFBdu2bUNoaCiXQAAgNDQUycnJInP1pKWlRfaRcnFxwZgxY9CpUyd4e3tjzJgxXFmzZs1E6k6cOBHdu3fHtGnTMHr0aOjo1N6kzi9+pzJw4EA0atRIZMl7oKTr6MyZM+UmQNra2sLe3h5OTk74+eefERERgQYNGpTLwKVvgL29PVxcXLBu3TqEh4fjypUrFe4wKW7Z796h34DBMDAs2ScaKNnHAQDy86kLjJDPoewmXRMmTcG233ejl20/+Hr/O5/s6JFD6G5ujBlTJ5Vp+Xl899130NHRKff5FxAQACMjI+jr64vE+QwMDDBy5EiRJfIrM3HiRGhpaWHPnj38IrH64klFRkYG9vb25X6p586dw4cPH+DgILqaKJ+SkhIWLFgALy8vvH//nl8s4mPegP9KT98Q+w76Q0JCAikpb3Dn9i14bFiDPv0GQlFRiV+dEFILqtukCwCMTDpi6fJfseLX9Vzscxo1ahQOHz4s0oV19OjRcl+oK2NmZoZHjx7xw+UIhUKYmprWqO5/8cWTClDyS42Ojsb9MptcBQYGwsbGpkZ7KJuZmaGwsBDPnj3jF5VT0zdAnH6YMBr9e1vifnQU5i9awi8mhNSS6jbpAoA2bduh34DB6G4pup/J5+Li4oLk5GRcuXIFABAREYEXL17UOKloaGggNTW1Rg8BaWhoIDExkR8WqzqRVKytrdGsWTPubqWgoAAnTpz4qF8qgBr9sip6A2pz50cAOHzsDKJinsHReRSGDOiFjIza38+FECLKzEQXo5yGQk1NvdJNuqrC/5v/lKOizQDbt28PU1NT7vMvICAApqamaNOmDa9mxVJTU9GoUSPIyMjwi8pJTU2t1YV0gTqSVIRCIUaMGMH9Ui9cuICcnBzY2dnxalYsNTUVAGr0y6roDfDx8QFj7D8dz549g76BAXfOjIx0vEp6CaBk/xc1dY3/sXffUVFcfRjHv1TBhhWigrF3bFhQFCsWFIkdu0RNULFGo4ktGhUbKPbeBVvE3ruxREAEuyKCgAiKQMRCW94/Niy7gwr6ssDq/Zyz58i9d0ZXdve3M3PnPsyau5CU5GQuX5J/IxEEIed8KqQrK6Tv+S959O3bV7pbQH608tdff5GcnMy+ffuy/IUawN/fP8sFKCAgQK0X6SGPFBWQ/6c+fPiQmzdvsm/fPmxsbDJEYn6Mv78/WlpalC9fXtqVwef8Av4fe3buoHMH1QQ2LS15jkNCwnuVdkEQ1CPiWbjizIBySJfP9Wu8fPlCMjr39O7dm5iYGBYvXkxgYKAiPyUzYWFhbN26lcGDB0u7Mti/fz/37t1TmSWmDrk+pThNvXr1qFatGjt27ODAgQMsWrRIOuSDEhMTWbRoEd27d6dQoULSbhVpv4D58+dLu7Jd8xatmTF1Ejs9tuHQdwAAy5YsBMCySfrUQUEQ1CezkK68onTp0rRq1Yrp06djaWmpuD1CWXJysiK9MSEhgVu3bjF//nwqV67M0KGqM9eio6MVY+Pi4rh8+TKLFi3CyckJc3P5LFR1yTNFBeRHK3PmzCE1NRV7e3tpNwB+fn7Ex8cjk8kIDAxkzZo1BAUFsWWL6pLzn/MLUIfqNWqydOU6xoz8CZfZM0hOSiIxKZHFy9bkmbhSQfjaZRbSlZf069ePM2fOfPTUV3x8vOJeFm1tbapVq0bv3r2ZO3duhusply5dUow1MDCgTp06uLq64uzsrDJOHfJUnkpQUBAVK1bkhx9+yLCkgK+vLw0aNFBpMzMzw9LSkgULFlCuXDlFu6urKxMmTFD8nPYLaNeuHXPnzlWZXphdPpan8iY+Hj8/X7S0tDCvXUdMJxaEHJSamsrE8c54bNucIaQr7b6xNHduB9DGujF+twMzFByRp5J1eaqoaLKPFRVBEHKfCOnKOXnq9JcgCII6iJCunJNnZn8JgiAImk8UFUEQBCHbiKIiCIIgZBtRVARBEIRsI4pKDgkNDaF9aytevYqWdgmC8I36nPBBgAMHDtCtWzc6deqkyIvKazS+qBw5cgQzM7OPLmsQGxvL+PHjadmyJcOHD+fZs2fSIWonk8kYPXwY/jdvkJKcLO0WBEGNspL8ePzoIRwH9KZf7x/YvXO7tFttkpKSCAsLY8yYMSxZsgRXV1dsbW05fPgwFhYWhISEKMZ6enrSs2dPqlSpQqNGjXBycmLJkiVKe8sbNH5K8datW/n333/Zt28fUVFRKkvlp6Sk0KxZM/Lnz0+/fv3Yv38/jRs35t69exQsWFBpL+q1avkSnjx5LG0WBEHNspL86LV3F6NGDMVp5BgMDAz4dfwoYmNi+Gn4KNWdqZGNjQ116tRR/Ozs7EyTJk2YOXMmGzduBMDFxYUJEyYwd+5cAIoUKcKCBQtwdnZGVzfvfJRr9JHK69evOXToEC4uLuTLl4+9e1W/gezfv5+QkBCOHTvGmDFjOHLkCKmpqWzbtk1lnDrdvXOL5e6uzJnnKu0SBEHNspL86L5kISOcxzF1xmwmTJrKlOl/smLZYpJz8ayCNHwwMDCQW7du0bNnT8WYnj178uzZM65du6a0Ze7T6KKyf/9+AAYMGICtrS2enp4q/V5eXrRu3ZrixYsDkD9/fmxtbfnrr79UxqlLQkICI352ZMr0PylXvoK0WxAENcss+fFJ0GPu372D3Q/pMRt29t2IfB6Br88/irbcoBw+GB4uj9FQXmG9dOnSGBoaEhERoWjLCzS6qHh4eNClSxcKFSpEz549uXz5MqGhoYr+8PDwDMvcV6pUKcd+CS6zZ1C6dBn6D/pR2iUIQg7ILPkxIkL+YV2+fHrGyHelSmNgYEDk8+eKttygHD4YERGBjo5OhpXYixYtmmOfZ1mlsUXlxYsXnD59mv79+wPQqVMnDAwMVLLuIyIiKFKkiOJn+PAvQR3Jj5f/vshuz+0sXrpa6W8SBCG3fCj5MfL5c7S1tSko+bA2KlKUyEjVoiJ9z3/J40PJjx+jHD5oaGhISkqKSo49yM+GSFcozm0aW1R2796NTCbj3r17uLu7s379esqUKcPOnTsVYwwNDUlKSlLa6sO/BHUkPx7w2gPAwL49aN/aiuHDBgHQu7sd8+fOUowTBCFnfCj50dDQEJlMluHDOjEhgXz6qp8T0vf8lzw+lvz4IcrhgyYmJgAq04xlMhmxsbFZSrzNSXlnysBn8vDwwMzMjJMnTyrajIyM8PX15eHDh1SpUgUTExOio1XvC3n16lWO/BJ69OxDnboWip/Dw0JxWziXXg79MK9TT2mkIAjqEvEsHANDQ4oWLaaS/GjXsTUvX76gZEn5bNGYmFeUKFESkH9Yx8XFYvLf6afcIA0frF69Ovny5ePatWvY2dkB4OPjg0wmU3vo1ufSyKISHBzM1atX8fLyUgnzev36NcbGxuzatYtp06ZRt25dTp06pbQlXLt2TWXqnro0smxKI8umip/v3A7AbeFcuvd0oKSx/FuHIAjqlVnyY+Wq1dDX18fX5zrtO3QC4KafLzKZjGo1aim2UbfMwgeNjIywt7fHzc0NW1tbdHR0WLhwIS1btiQrMeo5SSNPf3l6elK4cGE6dOig0l6oUCE6duyomAU2aNAgbt68yenTpwF50NeZM2dwdHRU3kwQhK9UqzY2HDm8n3t3bwNkSH4sXNiIDrZ2rFnhrjgFtnLZYqyaWfP99+WU9qRejo6ONGvWDGtra2bMmEHZsmXx8fGhevXqijFLly4lKioKU1NTzMzM8Pb2ZsOGDUp7yRs08kjFw8ODrl27Zrg2AtC7d28cHBzw9/enTp06LFmyhI4dO1K9enXu37/Pb7/9hrW1tXQztatZqzbPX72TNguCoEaDHIdx+5Y/bawbZ0h+TDNnnivd7TtQt2ZFdHV10dHW4a9DJ5T2oj4WFhakpmYt/MvExAR/f39u3LhBUlISDRs2/OywsZzwTSQ/RkZG4ufnR61atTA1NZV2ZwuR/CgIeVdmyY/JyckE+PuRnJRE3foNMvSL5Mes08gjlc9lYmKS4VSZIAjfjsySH3V1dalv0VDaLHwBjbymIgiCIORNoqgIgiAI2UYUFUEQBCHbiKIiCIIgZJtv4kJ9bvn70gX27U1fNiaNm/sqaZMgCN+ggIAAOnWS33SZpmzZsjRu3JipU6dSrFgxlb40HTp0YOvWrSr5UXmFxheVI0eO4OTkRJMmTdi9e7e0W2H//v0EBAQwffp0aZfaXDx3hjOnTlC7dl1plyAIOeTt27esXOaGj7d8KfvWbdrx47DhimArmUzGhnWrOHPqOPnyGdC+Y2f69pev1aduacmPCxcupHz58qSkpPDo0SO2bNmCl5cX58+f5/vvv1fZZtu2bZw4cSLDuoZ5hcYXlU8lP6aJi4tj1qxZWFikr8WVE4KDg7Dv2oNZcxZIuwRByAFJSUn0sO/AyxdROA51IiHhPa4L5nLndgDuK9YBMNLpRy5fusAI57EkJCbwx9RJPAsPZcKkqZK9qU9Wkh89PT2ZOXMmDx48UIzLizT6mkpmyY8ArVu3xtTUFD8/P2mX2oUEP6FCRdU8F0EQcs6ZU8fxv3mDvQdPMNx5LGN/mYz7irXs8txOxLNwbgXcxGvvLrZ67MVp5BjGjPuVNRu2sXL5EuJfv5buLsdIkx8B6tevz/z581m8eLFkdN6i0UUls+RHgDFjxrB9+3YaN24s7VK74CdBnD97mkb1qmNerRxDB/clLOypdJggCGoS+jSEehYNKVs2/RRS9f8Winz6NJiAm34ULmxE3XrpZzGsW7YmMSGBy39fULTlBuXkR4CqVatib29Pq1atJCPzFo0uKpklPwLY29tjb2+fI8vdK4uNjSEuLpb4+NfMW+iO29JVhIeF0rWTjeKbhyAI6jXMyZnDx8+ptB3YvxdDQ0OqVqtBYSMj4uNf8+bNG0X/q1fRJCcn56nkR02isUUlK8mPWaWO5Mf8+Qtw/rIvnnsO0rptO2zadWSrx14iI59z9LD8CEsQhJyTlJTE4kUuzJ01nemzXChSpChWzVtgZFSEKZPGERsbw/OIZ/wyZgQAMbHpgViQu8mPmkRjL9QrJz8+fvwYQJH8OGHCBMnoT/Pw8PisX/aHpC0omUZfX59q1WsojYCSxiaUr1CRJ0FBKu2CIKiXr891xjr/xOvXr9myYw/tO3YGoFix4qzf4smo4UOoVqE02tra/DxiNMWLl6BY0eIq+8jpBSWVkx81icYWlawkP+amq1cucfTwQWbMclFMXUxNTSU6OhozpfO7giCol8f2LUyeMBqnEWMYO2Ey+fPnV+m3amaNb8BDQkOfUrx4CQwMDFizcinG/0X45gZp8qMm0ciiktXkx9xUooQxG9aupEiRIowaOxF9fX2WLl5AYkICbWzaS4cLgqAGDx/cZ8LYEazbtINOdj9Iu4mNjcFz+xZ69emvuJh/6cI5dHR0sGiYc5N7Mkt+1CQaWVSykvyY20WlcpWqrFq3hbHOP7FqhTt6unpoa2uzZsM2RS62IAjqtXvndooVL4G2tjbHjx5S6Wti1ZxChQqzYqkbQUGBzJnnRsL798z9czqdunRVZNbnBOU0WjMzMywtLdm5cyflypVLH6QhNLKofE7yY26y79qDtjYd8Pe/gZaWFrVr16NAwYLSYYIgqEnQ40BiXkUzdHBfaRdHT12kTt36uC1bjdOQARzYt5f3799R36IRi9yWS4erxeckP6apU6fOZ2+Tk76J5MecIJIfBUFzvXgRhb/fDcqVr0Clyhmvx4rkx6zTyCMVQRCE7FSypDFt24l02OygsfepCIIgCHmPOFIRclRKSgrz58wklVQm/T5DMd06TWhoCFs3rcfIqAjOY35R6QMI8Pfj0IF91KhpTtfuvVT67t+7y+1bNylatDgWDRtRpEhRlX6AsLCnJCclS5sB+X1EBQoUkDYT8Syc48cOc+/ubUKCn1CqVGmqVa9J/4E/UvAj0z1f//svAQE3iXgWRvkKlahdpx56enrSYSoePrjPg/t3sbPvJu1SkZXnCfJx+/bsJDg4iNjYGIyNv6OZdUvsunQV1/YEtRHXVLKJuKaSda2aNeTe3ducOHuZOnXrq/StW72cab9PBOD2w6cZZuDMnP4bq5YvYdofcxg5ejwgn9M/avgQDnilLyhqZFQEt6WrMkwjrVq+FHFxsSptadZv9qBzl64qbV5/7WbyhDHExcWira1NseIlePkiCoDixUuwesM2mlu3VNlmz64dTPttIrGxMYq2ChUrsXTFOho0slQaqWrkzz9y/94dzlyUL9Eu9TnPc9aM31m1fAkAZmZlMcyfn6chwbx7946yZb9ni8dexRpYQubENZWsE6e/1OzO7QAmTRiNvW1bZkyd9NEPtG+JVfMWAFz/56qkBy6cP6P480WlP6dJy8Ro2sxa0eY4oBcHvPYyYtQ4jpw4z7pNO8hnYICz0488DnykGBcXF0tcXCzVa9Si74DBGR7Sm1KPHNrP8GGD0M+Xj2079/EoJIrbD0IIDIli+sy5vHkTj9OQAUQ8C1dsc/3aFcaM/IkiRYuyYYsnZy7+w7xF7kRFRTK4fy9evnyh9DekO3PqBPv3fTwPCLL+PA947WXlssXUb9CIqz63uX7zPheu3OBhcCRz5rsRGvqUoYP7kpCQoLR3Qcge30RRSU5OzpVvGX43fLDv1FZ+w2O79hw7chDH/qqnbL5Fzf4rKj7Xr6m0JyUlceXyJRpZNgXg/FnVopKYmEjAzRsUKFiQ2nXqAfKVC86cOsGIUeOYPnMuFg0bY2ffjd+nzeLdu3fs8tyu2D4k+AkAfQcMxs19VYaH8lFTQkICM6f/RvHiJTh2+iI27ToqTo0VLFSIEaPGMW3mXKKjX7J5ozyXA8BzxxZkMhmr1m2hk90P1KxVm8E//sSvk6fx8uULThw7ohgLMH7McFo3b0S/3j+QkpKi0qfsc57n/n17AFi5ZhPlyldQtOvp6TFk2HAGOQ7jceAjzp89pegTckdAQABmZmYqDysrK8aPH8+rV6prjwGsX7+enj170qJFCyZMmPDBMblNY4rKnj17MDMzY+fOjPG858+fx8zMTKUtNTWVJUuWYG5uTv78+cmfPz/NmjXj4sWLKuPUad6cP7Dv2oPFy9YweuxEVq3dzJXLl7h755Z06DeliVVztLS0Mhyp+Pr8w9s3b+jew4Fa5nU4f+60Sv+tgJskJCRg2cQKHR0dAHZs3QzA0J/kiwCm6dm7L+s3e9DGpp2iLa2olC9fUdH2MZvWr+ZpSDDDnEZialpW2g2AQ58BFCxUiLOnTyjaQkPl0QY1apor2gBqmsvvmXoaEqzSHh4WSvESJWjeotUnr7l8zvN8HPgQLS0typiqvifSdOrSleYt8vby6dnp7du3LJo/G4cedjj0sGPtqmUkJ6dfV0tJSWHj+tX06dmFnl1tWe7ummNHcWnJj2PGjGHJkiW4urpia2vL4cOHsbCwICQkRDF2/PjxjB49mqpVq9KrVy+OHTtGs2bNePfundIec5/GXKh/+/at4j+/Xbt2KtnNCQkJGZaHHjhwIAcPHuTPP//EysqKmJgYVq9eTbt27bhy5Qr166uey89ukc8juHj+LIdPnFe0WTRszPNXeesFkBuMjIpQy7wOtwJuEhb2VPGhfeHcWQBatGpDaGgIy91duXf3tuLcv2/aqS+r9FNfp08eo1qNmpQuY6poA9DR0clwfST4iXwhzwoVKxH8JIinIcF8X648Zb8vh5aWlsrYY0fkd1/3HzREpV1ZgYIFCQyRX19JU69+A/6+eJ7r166ofHBfv3YZgLr1VF93u/46rPizebVy6R0Sn/M8Tc3K8vDBfRa4/MnkKTPQ1lb97tjcumWG60Bfq6wkP86YOok9O3fg0G8g+fTzsXrlUm7f8mf1+q2SvalPZsmP0dHRLFu2jM2bN9OvXz8AevToQbly5di3b5+iLS/QmCMVgGLFilG4cGEmTpRfyP2Yixcv4uHhwdmzZxk9ejQWFha0bduWvXv30qhRI2bPni3dJNuFBD8hNTWVYsWK4754ARPGjWTb5g0q35C+ZWnXVbz/ST8FdvHCWczMylKufAVatrYB4NyZ9FM00uspcXGxxMbGULp0GR49fKA4ldS1czsWzpud4RtcSIj8SOXX8c5YWtSkV7dONK5fgyYNanH92hWVsbcC/DAyKpJhokBmBv04jNJlTHEaOpA1K5dy4thh5syahttCFyybNKNVm/Qjiqz63Oc5YtR4dHV1Wbp4AQ3rVmP6lF85f/Z0hnHfgsySH2UyGTu2bmTM+F+ZOXs+v0+fxdQZs9m/bw///hsn3V2OkSY/BgcHU7BgQWxtbRVjTExMKFmypCLEK6/QqKKir6/P6tWr2bRpE+fPn5d2K7i6utKlS5cPZtK7uLjQrFkzaXO2e/HfDKG+vey5e/sWBvkMmD93Jg497HLl+k5ek15U5KfA/v03Dj9fb6xbtQGgUeMm5M+fX+UUmI/3PyrXU9Le9BHPntG5fUvOnDqBsYkJ4eGhuC6YQ4c2VryJj1dsn3b66+XLF8xb5M6WHXsYOXo84WGhdLfvQOCjhwC8f/+et2/ffvT00aeYmpZlgesyoqNfMmPqJAb168myJYsoVKgwy1avx8DAQLpJpj73eTZr3oJ9B0/Qqo0NEc/CWbtqGQ497KhWoRS9unViz64dJCYmKsZ/zTJLfpTJZGhpaVGoUGFFf9Gi8inan7rGlROUkx8tLCyIiYlR/NsArl27RmhoKA0bNlTaKvdpVFEBaNOmDQMGDODnn3/+6HnPO3fufLRwpF0EU7e0F+TwkWNZs2Ebs+e5cuDoGa5evsTJE0clo789lpZWaGtr4/3fxfrLly4gk8lo0VJeVPT19bFq1oJ/rl7m3bt3RDwL51l4GI0tmyqupyQlJgFw7+5tOtt3xcf/ATv3HuKfG3cZOXo8D+7fY9GCOfK/EGjeohWjxk7g0LFzDP7xJ9p37My0P+awYs0mkpKSmD1zKiA/pQSQmPjh19enHDm0n4F9u1O5SlUWL1vD7n1HmD5zLqmpqbRvZcWjhw+km2Tqc58nQCPLpnjuOciDoAi27NjDkGHDKWNqxsXzZxk1fCg/dLZRmfL8tcos+VFXVxeHvgNZungBO7ZuYu9uD+bMmoadfTeKFk0/xZ4bPpX8ePDgQTp06ECvXr1o3z5vrXqucUUF5Eci0dHRzJ07V9pFSkoKT548oUyZMtKuj1JH8mNJY/lKxF26dle0VaxUmYqVKnM74Kai7VtVqHBh6tStz53bAbyJj+fCuTNoaWnRTOlcf4vWbUlISODalb8VxUf5ekragqJGRkWY7eKquNCtpaXFpN9nULx4CY4ePqAYP3rsRKZM/5NChdO/lQJ0+aE7ZUzN8PW5DshnSRUpUpSnIcGZHlXeuR3AqZPHiIl5xbt375g4zpmSxiYcOXmBPv0GYt2yNSNGjWO31xHi4mL5fdI46S4y9bnPU1mhwoVp37Ezc+a7ccX7FsdOX6J2nXrc8LnOonnqPw2cl3wo+RFg1NgJvH37lkkTRjN+9HDCwkKZ9PsMydZ5I/kxIiICOzs7+vTpw6RJkz5rfzlFI4tKiRIlWLRoEfPmzePevXsqfTo6OhQvXpzo6GiV9k/x8PAgNTX1/3o8efKEGjVrKvZZsWJltLW1if7vhQHyGWmxsbGUKCGWvgf5KTCZTMaNGz5cvHAW89p1KVYsPW2v1X/XVc6fO53hegpAseIlAKhSrTqGhoaKdpAf6VSpWp2Q4CckJcm/6X9KuXLleREVqRhbv0FDEhMTM52pN3niWAY4dCM5OZm7d27x6lU07Tt2onBhI5Vx5rXrUqOmOVcvX/rs0yqf8zzv37vLmJHDOH3yuMq4NPXqN2DHLi+0tLQ4eyY94O5r5+tzndbNG7Jl03q27NiD45CfAYh//ZqONtZ06+nA49CXBIVF4zx6PJ3bt+R5xDOVfUjf81/y6Ns342rJHyNNfrx58ya1atVCR0eH+/fv89tvvymOqvMSjSwqAIMHD8bKyoqffvoJmUym0lejRg0CAgJU2tIcOXIEQ0NDIiIipF3ZytjkO2za2zJz2mTFBdKVyxbzb1wsrZWmf37LrJrJr6t4/bWLoMeBtPjvekqaipUqY2ZWlvNnT+Hj/Q/5CxRQXE8BMDQ0pGKlykR/5IbCmJhoSpQ0Rk9Pj7CwpyxbsijDBfk0UVGRlC37veIooGcv+Zvf3W2B8jAVL6IiueFzncpVqlKypLHiiEJH+8NvdF1dXfT19dHSUp1plpnPeZ4Auzy3c/TIh49cAIoWK46BgQH6H4iO+Bp5bN9C1842dLTtwhXvW4ooYYC/L50nNuYVM2a5kC9fPnR1dRk/8XfyFyjAqRPHlPaSs6TJj8nJydjb29O/f3/279+f4RaKvERjiwrA6tWr8fb2Zt269JvPALp168a2bds+WDj27NmDqampyiGlurgsWEwNL+81AAAgAElEQVRwcBA1K5tiXq0cbotccF+xDjOz9IuG37JGlk3R1dVl93837lm3aC0ZIT8F9uD+Pfz9fLFsYpVhrbA+/QYR9DiQf/6bspvmVsBNHty/R30L+UXMggULMffP6UyZ/EuGIwW/Gz48eviAxk3Sr8N17dEbyybNOLj/L7Zt3qA0Wu79+/cMHzaIlJQUejrIp3NWrVaDfPnyceb0iQwzrYKfBHHndgA1zetkmOKbFVl9npUqV8HUtCx7d3ngf/OGytg0h/b/xbt372j8302mX7O05MdV67bw+/RZGaKE4+Nfo62jk+F3oqujw5s36ZMf1M3Pz4/Lly9z6dIlNm3ahLW1NUFBQcyaNQuA06dP8/TpU8zNzTlw4IDKIzAwULK33PX5r+48pEqVKkyZMgUvLy+V9hEjRlCpUiVat26Nt7c3MpmMuLg45s2bx5YtW3IsFbJ0GVPOXvLG6/ApVqzeiG/AQ+y79pAO+2YVKFCAuvUbkJycjIGBAQ0bN5EOUZwCS0lJUbmekqZP/0EYGRXhxwEO7N3tQdDjQA4d2MfAvj3Q0dHh92nyN2WRIkXpN9CRWwE3GebYD78bPgQ9DmT3zu0M7NuD/AUK8NvUP1T27bJwMYaGhkwc78wwx3547tjK1SuXWLNyKd3s2vH3pQvUMq/DCGf5dRI9PT0mTJrK05Bg+va05/LfFwl+EsShA/tw6GFHYmIik6eo/h1ZldXnqauryx+z55GYmEjn9i35848pHD7oha/Pdc6ePskf0yYzdtTPlChRknG/TJb8LV8fafKj8iMuLpamVtakymS4LZRPpgDYvHEt4eFhtGjVVrI39XF0dKRZs2ZYW1szY8YMypYti4+PD9WrVwfg4cOH6OrqMnz4cHr06KHyOHjwoGRvuUtjFpTcsmULkydPznD0kZiYSN26dbl3757iRQHw9OlThgwZwunTpylQoADv3r1DX1+fqVOnMmXKFKU9ZA+xoOSXcZn9B+5u82nRqo3KjYBp/v03juoVy5CSksKRkxewaNBIOoR7d+/g0MOOyOfpr42SxiYsXrpaJSMjJSUFl9kzWO7uqmgDKF+hIstXb/zgvoOfBDHW+WeuXf1b2kXvPv2ZPsuF4v9d8wCQyWQsnDeb5e6LVK7lFCtWnNnzFtGth4OiTcq8WjmMjU0+uqBkVp8nwOGDXkz9bUKG6wIAjS2tmDV3QYbFPL9GPw504MSxjK8rSE9+PHzQi1/GjEDnvyOWt2/f8KeLK/0GDFaMFQtKZp3GFJUvFRwczL179yhUqBA1a9ZUmeednURRyV0JCQkE3LzB/Xt3KVehIvXqWXx0WfoXUZHcvHmDyIgIqlWvgXmdeh+Mpk6TmppKSPATHjy4R8SzcMzMvqdq9eofXb4F5Csq+Pv7EREeToWKlahbzyLDrLMv8TnPMyUlBV/vfwgMfMS7d28pU8aUChUrU6VqNenQb15aVEFKcjLmdepmmE4sikrWffVFJaeIoiIIXy9RVLJOo6+pCIIgCHmLKCqCIAhCthFFRRAEQcg2GrP0vabxv3mDLZtU759JY9GgscrMEkEQhK+FKCpqkvD+PS8iI6XN/HPtCgULfni2jiAI35aAgAA6deqk0la2bFkaN27M1KlTVXKj3r17x4IFC7h06RI6Ojq0adOGMWPGfHLmYm7Q+KJy5MgRnJycaNKkCbt3Z8z4DgoKYunSpfj5+VG8eHEcHR2xs7OTDst2jSybsm3nPpU2X5/rDBnUh3ETvv6bzgQhr3j79i0rl7kp1o9r3aYdPw4bjq6ubq6fUUhLfly4cCHly5cnJSWFR48esWXLFry8vDh//jzffy9fgaNPnz74+fnh7OzMixcvmD9/Prdu3WLbtm2SveYujS8qW7du5d9//2Xfvn1ERUVh/N/qwACBgYFYWVlRrVo1HBwcuHPnDl27dmXDhg0MGjRIaS/ql5iYyPjRTsxf5J5hDrwgCOqRWfJjXjmjkFnyY0hICAcOHMDX11eRWluqVCkmTpzIunXrviinR100uqi8fv2aQ4cOsWjRIiZOnMjevXsZMSI9w3vFihWULFmSkydPKg4R9fT0mD17do4XlbWrlmFs8p3KYnaCIKhXWvLjVd87iqCuatVrMrh/LyZP+SPPnlFIS34cNmwYy5cv599//+WHH35QKTy1a9cG5DfE5qWiotGzv/bv3w/AgAEDsLW1xdPTU6U/LCyMTp06qZxzNDc3Jzg485yM7BQXF8tyd9cvXvdJEIQvk1nyo1ReOqOgnPxobm6Ol5cXOjo6REVF4e3tzZ9//omdnR1GRqoxC7lNo49UPDw86NKlC4UKFaJnz544ODgQGhqqWBZ6z549KuNlMhl79+6lQYMGn738+P9j7arl1Kxl/sG1pQRBUJ9hTs4Mc3JWaVNOfpTKS2cUlJMfayplNfXu3Zvz589TpEiRT8aq5xaNPVJ58eIFp0+fpn///gB06tQJAwMDdu3aJRkpFx0dTa9evbh48SJLly5V6VNH8mOalJQUPLZvpnffAdIuQRBy0MeSH9NkdkZB+p7/ksfnJDV+KPkR5MvgR0REMGDAAJo3b86rV69U+nObxhaV3bt3I5PJuHfvHu7u7qxfv54yZcqwc+dO6VC2bt1KlSpVCA8P5/r16zRsKM+eSKOO5Mc058+eJvrlCzrZdZV2CYKQQz6W/KgsszMK0vf8lzy+NPnx1atXhIeHA/J02++++47FixeTnJzMuXPnJFvmLo0tKh4eHpiZmXHy5EkOHz7M4cOHMTIywtfXl4cPHwLyF8GQIUMYN24cixcv5sqVK9SokfGQV53OnDpO3foNKFCggLRLEIQc8KnkxzR57YyCNPlx69atNG2qGqqmpSU/hf/+/XuV9tymkddUgoODuXr1Kl5eXtjb2yvaX79+jbGxMbt27WLatGmsW7eOffv24evrS4UKFZT2kHPOnzuNbef0f6MgCDknLflx3aYddLL7QdqtkNtnFPz8/IiPj0cmkxEYGMiaNWsICgpiyxb5qudt27bll19+YfPmzQwePBiAefPmAWBtnTG8LjdpZFHx9PSkcOHCdOigGkxUqFAhOnbsiKenJ9OmTWPjxo1YWFhw69Ytbt26pRino6ND584Zv62owxXv9L9XEIScJU1+VNbEqjlGRkWA3D+j4OjoqPizmZkZlpaW7Ny5k3LlygFQq1YtNm/ejKOjI1OmTCEpKYnExEQ2btyY5/LqNbKoeHh40LVr1w8uT9C7d28cHBzw9/cnMDCQuLg4Lly4oDKmQIECxMbGqrQJgvD1CXocSMyraIYOzngtIy35EXLvjIKFhQWpqVm7vWHAgAF07doVb29vtLS0qFevXp6bTgwipCvbiJAuQfh6iZCurNPYC/WCIAhC3iOKiiAIgpBtRFERBEEQso0oKoIgCEK20cjZX5oiJSWFLZvWcerEUZKTk2nRsg3DnJw/OGtNEAThayCOVNRoxtRJzJ8zkypVq1OvXgNWr1zKmJHDpMMEQfhGBQQEYGZmpvKwsrJi/Pjxn1zTKyQkhIYNGxIdHS3tynUaf6SSWfLj1atXWbp0KU+fPqVChQqMGzdOEXKjTjKZjB1bNzJx8jRGjBoHQIVKlRnr/BML3JZRuHDem18uCF+jTyU/prlzO4Ctm9dz/+5d6ta3YPzE3xQ3RqrT5yQ/ppHJZAwaNAgfHx+Sk5NV+vICjT9SkSY/KvP19aVZs2bo6urSp08fwsPDadq0KXfv3lUZpw4ymQwtLS0KFSqsaCtaVL4qakpKiqJNEAT1SUt+3O25nRYt22DZxArXBXP5ZcxwxRi/Gz7Yd2pLYkICbdq159iRgzj276W0F/WzsbGhe/fu9OrViylTpuDt7Y2hoSEzZ86UDsXV1ZXAwEBpc56h0UUlLfnRxcWFfPnysXfvXpX+5cuX06lTJ7Zt24azszMnTpygYMGC7NixQ2WcOujq6uLQdyBLFy9gx9ZN7N3twZxZ07Cz75br4T+C8K1IS37ce/AEw53HMvaXybivWMsuz+1EPJOv+jtvzh/Yd+3B4mVrGD12IqvWbubK5UvcvZN7SyylJT9u27aNt2/fKtoDAgKYP39+hviOvESjT38pJz+eO3cOT09PlTjh0qVL07ZtW8XPenp6VK9encTEREWbOo0aO4EDXnuZNGE02tra6OrpsXHrh/NeBEHIfpklP2pra3Px/FkOnziv6Ldo2Jjnr94pfs4tysmPNWvWJCEhgf79++Pi4kLFihWlw/MMjT5SkSY/Xr58mdDQUEX/nDlz6NevH4mJiTx+/Jg1a9YQEBBA9+7dlfaiHvGvX9PRxppuPR14HPqSoLBonEePp3P7ljyPeCYdLgiCGgxzcubwcdW8EeXkx5DgJ6SmplKsWHHcFy9gwriRbNu8IU9cq1BOfgSYMmUKpqamDBuWtyf7aGxR+Zzkx6tXr1KpUiWcnJzo1atXhpAudSQ//n3pPLExr5gxS35qTldXl/ETfyd/gQKcOnFM6W8XBCEnfCj58cUL+XXYvr3suXv7Fgb5DJg/dyYOPewyrPUlfc9/yeNLkx/Pnz/Pli1b2LBhg2RU3qOxp7+Ukx8fP34MoEh+nDBhgsrYFi1a8PbtW3x8fHBwcGD69OnMmTNH0e/h4fFZv+wPSVtQMk18/Gu0dXTQ1lat27o6Orx5E6/SJgiCevn6XGes80+8fv2aLTv2KIK60ibNDB85loGOQwFwHOqEdZN6nDxxlPYdOin2IS0y6qac/Lhq1SoAunTpAshntAG0b9+eLl26MGvWLMV2uU1jj1Sykvz4+PFj3r2Tnxs1NDSkefPmjBw5koMHDyrvSi2aWlmTKpPhtnCu4sW4eeNawsPDaNEq/TqPIAjq9ankx5LGxgB06Zp+SrxipcpUrFSZ2wE3FW05TZr82L9/f+bNm4eTkxNOTk706NEDgIEDB9K6dWvJ1rlLI49Uspr8aGFhweLFi1UCcLS0tHIkfrN0GVOWrdrAL2NGsHHdarS1tXn79g0L3JZTvUbGLHtBELJfZsmPFStWRltbm+iXLylSRD7lPzU1ldjYWEqUkBecnJBZ8qOVlRVWVlaK8f7+/syaNYt+/fphYmKiaM8LNLKoZDX5sX379ixbtgx7e3uKFStGWFgY69atw9bWVmU7dencpSstWrYhIOAmKcnJmNepK6YTC0IOyiz50djkO2za2zJz2mTWbNyOoaEhK5ct5t+4WFrbtFMZr06ZJT9qEo0sKllNfly7di02NjaUKVOG0qVLExoaSsuWLZk7d650M7UpVLgwVs3yVoa0IHwrspL86LJgMQ497KhZ2ZQCBQvx9u0b3Fesw8xM9U52dfic5EdlderU+aLtcsI3kfz46NEjHjx4QIUKFahRo4a0O1uI5EdB0FzJycncuR1AXGwstevWU5wKSyOSH7NOI49UPlflypWpXLmytFkQBAGQr4CRllcv/H80dvaXIAiCkPeIoiIIgiBkG1FUBEEQhGzzTVxTyS0ymYwN61Zx5tRx8uUzoH3HzvTtP0g6TBAE4ashiooajXT6kcuXLjDCeSwJiQn8MXUSz8JDmTBpqnSoIAjfoICAADp1Sl8KBqBs2bI0btyYqVOnUqxY+n1t586d++ByUuvWrZM25SqNLyqZJT8qmz59Ovny5WPKlCnSrmx3K+AmXnt3cfzM39StZwFA7dr1GDK4D04jxlCwUCHJFoIgqENmyY9/X7rAvr07lTcBwM1dvt6WOn1O8uOpU6c4evRojiTX/j80vqhIkx+N/1vLR+rMmTPMnj2bn3/+WdqlFgE3/Shc2EhRUACsW7YmMSGBy39fUFl/SBAE9UhLfnz5IgrHoU4kJLzHdcFc7twOwH2F/Bv+xXNnOHPqBLVr15VsnXNsbGyoU6eO4mdnZ2eaNGnCzJkz2bhxIyBfy7B37964ubkpxuVFGl1U0pIfFy1axMSJE9m7d69KSFeamJgYHB0dKVWqlLRLbQobGREf/5o3b95QoEABAF69iiY5OZnI588lowVBUIe05MervncUQV3VqtdkcP9eTJ7yB6VKlyE4OAj7rj2YNWeBZOvck5b8OGzYMJYvX07+/PkJCgqiZcuW0qF5jkbP/lJOfrS1tcXT01MyQm7EiBF06dKFRo0aSbvUxqp5C4yMijBl0jhiY2N4HvGMX8bIC15M7CvJaEEQ1CGz5EeAkOAnVKhYSdGfVygnP4L8SOXkyZNUrFiRUqVK0bNnT54+fSrZKvdpdFHJLPkxbYyPjw8LFuTst5BixYqzfosnFy+co1qF0tQ3ly+nXbx4CYoVLS4dLgiCGmSW/AgQ/CSI82dP06hedcyrlWPo4L6EheX+h7Vy8mNMTAwxMTG8fv2aFStWsH79ep4+farIispLNLaoZCX5MSwsjNGjR7N161by58+vaJdSR/IjgFUza3wDHnL95n0ehUQxdcZsYmJeYZzHlqoWhG/Bh5IfY2NjiIuLJT7+NfMWuuO2dBXhYaF07WST4cNa+p7/kseHZm99jHLyY4ECBbh9+zbHjh2jQ4cOdOrUiYMHDxIREcG+ffskW+Yujb2mklnyY2pqKoMGDeKnn36iSZMmkq1VqSP5MTY2Bs/tW+jVp7/i0PvShXPo6Ohg0bCxYpwgCOr3seTH/PkLcP6yLxUrVUZPTw+AunXrY1G7CkcP76dHr/TVjXN6QUnl5Ed9fX1q1lTNYTIxMaFSpUoEBgaqtOc2jS0qysmPaZSTH42MjDh79iwvX77k1KlTAAQGBqKnp4ePjw9eXl6Ympoqts1uhQoVZsVSN4KCApkzz42E9++Z++d0OnXpSokSJaXDBUFQE4/tW5g8YTROI8YwdsJklbMW+vr6VKuuunJ5SWMTyleoyJOgIJX2nCRNfrx48SJeXl4sXLhQMRU6NTWVly9fUi6PZa5oZFHJSvLjhAkTWL9+vdJWsHz5coyMjBgwYACFCxdW6ctuOjo6uC1bjdOQARzYt5f3799R36IRi9yWS4cKgqAmmSU/Xr1yiaOHDzJjlovKh3V0dDRmShf31S2z5EdjY2OWLVtG0aJFmTx5Mvr6+ri4uJCQkJBjoYNZpZFFJavJj0OGDFHpP3z4MN99912GdnVp196Wf/zu4e93g3LlK1CpchXpEEEQ1Ciz5McSJYzZsHYlRYoUYdTYiejr67N08QISExJoY9NeZbw6ZZb8WK1aNTw8PHB0dMTV1RU9PT20tbXZuXPnR+/Nyy0aWVSymvyofDNRbilZ0pi27VSLnyAIOSMryY+r1m1hrPNPrFrhjp6u/MN6zYZtlCyp/g/rz0l+7NWrF7a2tvj6+qKlpUX9+vUpWLCgdFiu+yaSH3OCSH4UBM31Jj4ef/8baGlpUbt2PQpIPqxF8mPWaeSRiiAIQnYqULAgTa2spc3CF9DY+1QEQRCEvEcUFUEQBCHbiKIiCIIgZBtRVHKIQw87XryIkjZz/OghHAf0pl/vH9i9c7u0WxAEQaOIopID9uzawfmzp0lOSlJp99q7i6GD+1KxUmXq1W/Ar+NHsXbVMpUxgiB8vQICAjAzM1N5WFlZMX78eF69yriaub+/PyNGjMDa2ppffvmF2NhY6ZBcp/GzvzJLfhw3bhzx8fEqbV26dMHOzk6lTR289u5i0YI5PA58JO0CwH3JQkY4j+P36bMAMDIqwvKlbiqpdIIg/H8yS35UFhoawtBBffHce5BixdS/mvjnJD96e3vTtm1bevToga2tLevWrePGjRucO6e6CnNu0/gjFWnyo7L379/j7u5OYGAgz58/VzykRUZdzOvUY9ofcz4Y/vMk6DH3797B7oduijY7+25EPo/A10f+4hcE4f+Tlvy423M7LVq2wbKJFa4L5vLLmOHSochkMkYPH4b/zRukJCdLu9XKxsaG7t2706tXL6ZMmYK3tzeGhobMnDlTMWbq1Kn07t2bDRs2MHnyZHbs2MH58+cJCAhQ2lPuy1iqNUhmyY9PnjwhNTWV/fv3Y2RkpLRlzqhUuQqVKlfhzu2Mv/SIiHAAypevqGj7rlRpDAwMRDKkIGSTrCQ/plm1fAlPnshXPM9t0uTHuLg4Tp8+zZUrVxRjLC0t8+QNmRp9pJJZ8mNQUBDGxsa5UlAyE/n8Odra2hQsVEil3ahIUSIjRVERhOyQleRHgLt3brHc3ZU581wVbblNOfkxKCgImUxG8eLFcXFx4eeff2bt2rUk5/ARVVZodFHJLPnx8ePHGBgYYGtrS4kSJahXrx5r1qxR2kPuMTQ0RCaTkZKSotKemJBAPv2Ma5oJgvD5spL8mJCQwIifHZky/U/Kla+gMjY3KSc/RkZGoqWlha2tLf7+/hgYGDBt2jQ6dOiQ545WNLaoZCX58fHjx0RFRWFjY4OXlxc9evRg1KhRrFy5UjEG1Jf8+Clpi9XFxKTP8JDJZMTFxWLy34tJEITs86HkRwCX2TMoXboM/Qf9KNlClfQ9/yWPzwkDVE5+TElJITU1lV9++YWdO3fi7u7OpUuXuHDhAocPH5Zsmbs09ppKZsmPABMnTuTXX3+lTBn5edPmzZvz8uVL3NzcVK69qCP5MTOVq1ZDX18fX5/rtO/QCYCbfr7IZDKq/Xd4LghC9vhY8uPlvy+y23M75/72lmyRUU4fESgnP6ZNHe7Vq5eiv0qVKlSpUgU/P78cmc2aVRp7pKKc/Hj48GEOHz6skvwIYGpqqigoaaysrHjy5EmG0045rXBhIzrY2rFmhbvi37Jy2WKsmlnz/fflVAcLgvDFPLZvoWtnGzraduGK9y1FQQE44LUHgIF9e9C+tRXDhw0CoHd3O+bPlU/1zw3S5McqVaqgo6PDixcvFGNSU1OJiYkReSrZISvJj9OmTePXX3+ldevWKmFeUVFRmJmZoaOjo2jLLXPmudLdvgN1a1ZEV1cXHW0d/jp0QjpMEIQvlFnyY4+efahT10Lxc3hYKG4L59LLoR/mdeopjVSvzJIfv/vuOzp37syECRPYtWsXhoaGLFq0iNjYWDp27CjZW+7SyKKS1eTH8PBwhg0bxsWLFylfvjwhISG4ubnRr18/le3UrWat2jx/9U7aTEljE85e8ibA34/kpCTq1m+Avr6+dJggCF8os+THRpZNaWTZVNF253YAbgvn0r2nAyWNTZRGq1dmyY8gj0Nv3749JUuWpFChQrx584bNmzcrbo7MKzSyqGQ1+XHZsmU4ODhQoUIFzMzMiIiIoHv37kydOlW6Wa7R1dWlvkVDabMgCNkgK8mPuelzkh9NTU3x9/fH39+fmJgYLCwsKFpUPtkgL/nqkx9TU1MJDAzk4cOHVK1alUqVKkmHZAuR/CgIXy+R/Jh1Gnmk8jm0tLSoXLkylStXlnYJgiAI2UxjZ38JgiAIeY8oKoIgCEK2EUVFEARByDaiqOSQjyU/psmsXxAEQRN89Rfq84KPJT+myaxfEISvU0BAAJ06yZdpSlO2bFkaN27M1KlTKVasGAC+vr6sXr1aZVwaS0tLhgwZIm3ONRpfVDJLfpTJZCxdupSTJ0+io6PDiBEjcuwO1MySHzPrFwTh/5dZ8uO7d+9YsdSVa1cvo6OjQ3PrVgxzcv7gfXDZLavJj+/fv+f5B3KW/v77bwpJ4jNym8bfp9K7d2+OHz/OmzdvePbsWYZ1cPr06YO3tzdOTk4EBASwfft2Tp8+TevWrVXG/b8+dJ9K4KOHBD56wNOQYKZP+RW/24EqoUCZ9QuC8P9JSkrC3rYNL19E4TjUiYSE96xa7k4H2864r1gHwKB+Pbl9y58fhzoRHf0Sj22baWPTgRVrNir2o677VHx9fWnQoAE3b96kTp06iva4uDiaNGmCpaUlGzem/zuU/fPPP3Tv3p2AgADFEU1eoNFHKpklP169epW//vqLhw8fKpY7iIqKYvny5dleVD7kU8mPkHm/IAj/n8ySH5NTkjlx7DAnz12h9n9rfZmYfMfM6b/h6r4SAwMD5d3lGGnyY/78+VX6ExMTGTJkCCtXrsxTBQU0/EJ9ZsmPW7dupU2bNirr5xw/fpx9+/alDxIE4auVWfJj/OvXdLC1o2at2or+GjXNAUhMTFC05Qbl5EepJUuWUKpUKbp06SLtynUafaQiTX50cHAgNDQUMzMzAAIDAzE3N+fIkSMcP36cggUL0rdvX8zN5S8aQRC+bsOcnBnm5KzSppz8WKRIUTZvl1+LffEiirDQp7gtdKFdh04ULpy7MeTKyY81a9ZUtMfGxjJ//nyOHj2qaMtLNPZIJSvJj5GRkRw8eJDx48ejp6eHv78/DRo04PTp04oxkDvJj4Ig5KyPJT+m+fnH/nRs25w7twOYODnjorPS9/yXPD4nDFA5+VHZkiVLqFOnDo0bN1Zpzys09kglK8mPaRGcfn5+inOSAwcOZNKkSfj6+ir2lRvJj4Ig5JyPJT8q27P/GNEvX+DutoAutm3w8X9A0aLp1yvUcaH+U5STH9OkpKSwYcMG5syZozQyb9HYI5WsJD+amJjQuXNnlYtcdnZ2BAQE5HryoyAIOeNTyY8xMa+IeBYOgI6ODsYm3zFr7kJSkpO5fOmCYlxOkyY/pjl58iQvXryge/fuSqPzFo08Uslq8mP16tVV4jcBoqOjKV68eJ5IfhQEQb0yS37cs3MHa1YtwzdA/kUU5Ke5ABIS3iva1C2z5Mc0R48epWHDhhQoUEClPS/RyCOVrCQ/AgwdOpS9e/dy7tw5AJ49e4abm1uOV/m05MeP3YOSWb8gCF9Gmvyo/IiLi6V5i9Y8Cw9jp8c2xTbLliwEwLJJM0Wbujk6OtKsWTOsra2ZMWMGZcuWxcfHh+rVq6uMO3nyJFZWVipteY1GHqlkNfmxXr16uLi40KZNG0xNTYmMjKRly5bMnTtXupkgCF+hrCQ/Ll25jjEjf8Jl9gySk5JITEpk8bI1lDGVzyJVp89JfgR48OCBtCnP0fg76rMiMjKSGzduYGZmRs2aNZXBB1QAACAASURBVBWHt9npQ3fUC4KgGd7Ex+Pn54uWlhbmtetkmE6srjvqv0YaeaTyuUxMTHJsvS9BEDRPgYIFada8hbRZ+AIaeU1FEARByJtEUREEQRCyjSgqgiAIQrYRRUUQBEHINqKoCIIgCNlGFBVBEAQh24iiIgiCIGQbUVQEQRCEbCOKiiAIgpBtvok76r8VYWFP8dy+lefPn2HdojVdfuiusiTN6ZPHefo0mB+HOiltlVFsbAxPgh5TrXpNDA0NiY2N4ezpEwQ+ekTtOnVp37HzFy9188e0ydS3aEiXHzJf1DM8LJQiRYuprMh68fxZzp45yft376hbvwE9evVBVzfzl/G9u7fR09OnUuUqAJw9fZJzZ08hS0nBsmkz7Oy7SbZQdejAPjZvWMPv02Zh0fD/C0d6Ex/P7dv+lCtXAZPvSpGcnMyh/X9x9erfmJl9T/9BP6rkeHzM+/fvOXbkIEGPHxEVFYmBgSGlSpWmeo1aWLdsneXf0du3bzl98hjhYaFERj5HV1cXk+9KUb1GLayaWWd5P9lh/749XP77AsWKlWDg4CEq62/JZDJmTJ3EkGHDKVe+gtJWQl6S+btR0AgPH9zHrkMrChcuTEljEzy2bebcmZMsWb5WMeb6P1fx9b72yaKyeeNapv02gaSkJPLly8eO3Qf4beIYoiIj+a5UKZYuXoBNe1s2bUtP2JQKCX5CdLQ8tS4t8S7tz97Xr5Gamsr35eTBQ3Xq1ldsJ9W2hSVz5rvSrYcDAAvnzcZ1wRzMa9eleIkSHNz/FxvWruTA0TMqmTlSc/+cwdLFC1i2aj2VKldR/NygkSUG+fKxfetG9u/bw4Yt8tWtPyQy8jn+/n44DnSgb//BjJ/4G/r6+tJhmbp+7QqD+/fi1atoAFwWLiHw4QP+2rOTuvUtOH3yOOvXruT0+auUNDaRbJ3u0oVz/DxkAKmpqeQvUIDwsFBMTcuin0+fpyHBlC5dhqWr1me60u6mDWuYP2cmb9++oez35TAqUpSkxERiXkUTGvqUst+XY92mHZ/8PWWXieOd8dy+hQYNLQl8dJAtG9ey98AxapnXAeQBVetWL8e2cxdRVPIwUVS+Eq4L5tCgUWM2b9+Dnp4eN3y96WHfgWbWLenRK+MKrR/yLDyMab9NYMhPI+jTbxA+16/Rr5c9tWrX5cTZK+TPn59HDx9g286aUyePYdPuw+uprV7hzqYNa6TNCr7e/7Bm5VIAwl/EfzTbJjU1FS3kBSk8LJTFi1xYuXaTosi8/vdfutt3YOnihUyeMkN5U4X79+6ydPECxXbPI56xbMlCtu3cp/j3Pw58hK2NNcePHqKDrZ1kD+lKljTm0PFzTPplNFYNzZk89Q+69XD4rG/y48cMp2kza36bOpPwsFAG9OlGseIl+Pu6PyVKlOT9+/f07taZJa7zmTPfTbo5AHFxsTgO7M2Ycb/iPOYXtLS0OHH8CNMm/8KRk/JgqTUrlzGgT3dOX/iH778vp7qD/1z++yJ/TJ3En3MX0b1XnwwZHVGRz1nm7opDdzt8bz36YOFOTEzk/r30GG3l/wvlLxMg//8zNpHnrks9fHCfHVs3se/QCSybNEMmkzF82CCGDxvE2Uve6OnpSTcR8ihxTeUrced2AP0H/qh489W3aMgff85n9sxpvHv3Tj4oNfWTH4A3/XwpUrQY0/6YQ9Vq1ek30JHvy5WnV+9+ig+UylWq0r5DZ274eEu2TvfH7PkM/XkkRkZFWLFmIzfvPObmncf43Q6kSdPmTJg0Bb/bgfjdDvxoQQHV+Nbbt/wxNTVTFBSAQoULM8hxGNeu/K1ok7p/7w7lyldQbPfo4QNKGpuoFMSKlSrTvmNnfH2uK9qkUv/7vytRoiQbtngyc84CFs2fQ9OG5ix3dyUq8rl0kwxevYom8NFDfps6k4qVKmPdsjWWTZvR5YfulChREgADAwMc+g3k5s0bkq3T+Vz/hxIlSjJq7ATF77N9h06UMS3LmVPHKVq0GJOnzKBe/QacPnlMsnW6UyeOYt+1JwMdh2YoKADGJt/x59yFFClaFL8bPtJuAGJjXjGoX0/atWpKu1ZNsWnZRPFo28KSti0saWPdmDbWjdm8cZ10c4W7d25RrXpNxZGVtrY27ivW8f7dO7ZuXg+kvx4+9RoWcp8oKl+J70qVJvRpiEpbv4GOFC1aDHe3BQCkkgqfeENqa2tjaGCg8kHfoaMd1WrUUBolP7etq/vxYpAvXz5muyxixZpNzJg6mXVrVlCseAlKlS6Dnr4eRkWKUqp0mUxDyVJT0/+9hQoXJvkDEdCvXkWjp//xb7E1a9XmecQzxem4ChUrERcbw5v4eJVxYaEhGH/idJOUbWd7Ll71Y/jIsezd7UHt6uVpaWXB5AljpEMV8uUzACDmv1NfAC+ionj79o3iZ4C3b99gaGio0iYlk8mkTQDExMQo/qyvr6+Iyv2QggUL8vJllLRZRXJyMvHx8SqRtsqMTb7Dx/8B3Xo4YGRUhBu3HuEb8BDfgIf4BDzAJ+AB3v738fa/j9PI0dLNFUqVLk3Es3CVmG8DAwOmz3Jh0bzZvHgRJYqKhhBF5SvR1qYD811m4bV3F5HPIwB55vaS5WtYucyNFUvdiH/9WrKVqnr1G/DiRRSuC+bwIioSgN+nz6KxZXrS3K2Am5w4fhiLBplfrG7brgNnL/7D7Vv+2NpY8+jhA8U3/qxat3o5f0ybzIP794h//Zod2zYr+u7dvY3H9s1YNvl4El7lKlVp3bY9dh1a4bljK0lJSfTo3RenoQO5d/cOIcFPmDXjd27d8semva1083Qf+Hfr6ekx0HEo5y/7cvj4Odq17/TJo50CBQrQvEUrJo4fxbbNGxg/ZjgvXkRx0Osv/rl2GZCfilu9fAnWLVtLtk5n0bAR/8bFMWfWNN6+fUtycjIe27fwz7XLNGnajMTERFYtX8K5M6dobt1KurnCD916ce3qZZyGDeLCuTM8j3jG27dviX/9mrCwpxw6sI8fOttQsqQxNWvVlm6uoKOjw3DnMejo6FC6jCllTM0oY2qGqWlZTE3LYmb2PWZm32fIKFFWy7wuunp6DHPsx53bASQkJABgZ9+Nxk2sGNinOzf9Pny0JOQt30RIV07I7ZCu1NRUfps4lq2b12Neuy4nzso/pID/tXffUVGe2R/AvwxlaIIQQIq4Gmts8fizxYiiwqprwwTdWLAEs0YsiUZjTUSNsSSajdGYRDc2RrEBWbsgIlFWQGxYKSogoEjvMML9/eHyOvMywKBv4sDezzlzjnOf+zyHd17P3HnLncHpU8cx52Nv5OfnwWXAQBwKPKEyU11QwCEs+mwu8vJykZiSqXZaxNNjGC6Eh2HytOnYsPEHlVm1IyL8tPV7fPftOhgZGWHewiXw/mimOK2ag/5+iI+7hwf3E58/HiSiW7fuCDh6BoUFBWjXyh5vd+uOoOMhGn8FtEpZWRk2rl8Dxd6dwhGLqu7/1xMrv1qPnr3fEQ8Jtv+0Bbt3bseFyOvioXpJT0vFJ7P/gYgL4WjZ6k1s36lATHQUFsybBVMzMxQXFaFff1coDgTVuk1ng09j1oxpyMvLhUwmAxFh0bIV+GTe57h75zaGDn4X8xYuwSfzPhdPVXM56hI2rFuN8LBQ8RCMjY3xtxEeWPX1BuH0XE3Ky8uh2LsT07xniIe0dv3aFXhPHo9Hj5LVrnkVFRVh5vTJOHP6+f/bf584i159+qpO/cPxj3Rpj4uKRF53UamSm5uDrMxMtG7TVi1eVFSE8+dCQEQYPtJDbUyspKQE8XF30alzV7VTYfv8dsO5xV/Qz2VAtU/t2rhx/Sr8FXsw0uM9vNPXRTyslYL8fDSxsEBZWRlCzpyE+5C/aX0XVnl5OR7cT0RGxhPk5+XCytoaTk7Owp1otUlKeohHKcl4t19/8dBLqayshEz24kRBUtJDXIr4Hc2d/4K+77po9frm5GQjKvI/KCzIR/f/64VWb7YG8LyIVlZW1nkKTVXGk8dITX2EjCePYWBgCFs7O7z5ZhuY13Da649SUVGBpIcP8IaNDSwtm6qN3bp5A9euXsHAQW5wdGquNvZH46KiPS4qEtGVosIYkx4XFe3xNRXG/oeVlJTgl20/YP7cj/HLth9QVKR+00BiQjy+WLpQLabJ5ahL+HLZ51i2aL7G60rbf96Kc2eDxeFqggIOYeH82Vj7lS9SH6WojVVWVuKLpQvx8MF9tTjTLXykIpHXfaRy5/ZNKJVKAJp7Bar+bWpqJpwmEcvOzsKjlGThubjPQPXfLVu+CTNzcyGuKjk5Cbk52cLz2tap6QKwVP0PurRNuqasrAzD3FyQ+igFHTt1wbWrl/Fm67YIPHZGuKh+/txZ/P39EXic/d/b0jU4cmg/Zn/sjc5d3kZJSTESE+KxafNPGD9xspAzYuhADBzkhs8+X6YyU5168+M9PHv2TK35UalUwrmZBQKPnXnp06cvi49UtMfNj43EF0sX4kJ4mDhcTZ93+iHouOZPjFdjLuOjDyeiWPRpVZPDv51CP5cB4jAA4OD+vdj0zdoab3tVlZ5VrPbGXKWq/6G2W2KrzF+4FJ8v+UIcBqBb26RrhdJfsQfZ2Vm4EHUdtrZ2yM7Owqhhg+C7fBE2bf5JnF6jFcsXY/GyFfhk/iIAwK87fsLiBXPRu09fvNm6jShbM25+bDy4qDQSh4NOYvev27FowVwcCjyB1m3agoie96bgReOY8X97JTQZ7D4EMTfiMPpvg+Hc4i/4ZtMWYZ54HTs7zW94ALBg0XIMGz4Kw9xcMG/BYvx9/POvEwHU1yFSfyNUVdX/MGfmdJwNPoVzF6I1rgGg2gVdVbq0TbpWKG/duoERo8bA1tYOAGBt/QZ27NoPtwG94f0PH3Tq3BVE1W+lVvU04wkyn2ZgqspdXx9O/xhRlyKwZtUXwlff1LVOTc2PLr3fxp5dO+D90Uzh9a5tHfb6cVFpRLymemPNqi9ga9fspe+OsbKyxkSvaYiOuvTSawDPTwG5DnKHZVOrl16nqv8hLDT4pdcAdGebdK1QOjg44tpV9c79Dm91hNcUbyxb9BkCj52psxhYWb8BuVyOlOQkWHZ58TcvW7EaA97pjvCwUPR3HVTnOqrNj1V3HFY1P34+fw5GebwvnJKrbR32+vGF+kZEJpNhzfqNsGumfWe4JkOGjcDYDyaKw/U2w2cuetXS+6GN9h06YmENn9jrQ1e2SYpGQeBFoTQxMa11ndp6XQYMdEPImZP4dv1XeHA/UYgv+3I1UlKSMNfno2oXy8UMDAwwwHUwfP4xFREXw5GfnwcAcHb+C5YsX4mZH03BiWO/oVLDtyGo4ubHxoMv1EvkdV+oZw2HFI2CAPDwwX3cu3cHQ4YOFw9pbb9iD75YugCFBQVqza73ExPgNf49JCbEQ19fH6lP1b/WRlVeXi4mj/dE5KWLmDn7U6xYtVYYW//1Kmz+bgMqKiqweNkKfPrZYpWZ6rj5sXHgoiIRLiqsoSopKcHDB/fRvsNbag2ZlZWVuHghHAnx97QqgGmpjwCg2qnB9LRURFwMR8uWb9b5WzTc/NjwcVGRCBcVxhovLira4wv1Erpz+w4CDvuLw69NYkJ8ta9rqS8p1gB0ax0p1gB0ax0p1gB0ax0p1mB/Pj5SkcizZ89w4MCB/957oxu8Jk3CXj8/cbhepFgD0K11pFgD0K11pFgD0K11pFhDKlZNrTB8eC3fYs0EXFQaMT09vVc+ZJdiDUC31pFiDUC31pFiDUC31pFiDfbn41uKGWOMSYaLCmOMMclwUWGMMSYZLiqMMcYkw0WFMcaYZLioMMYYkwwXFcYYY5LhosIYY0wyXFQYY4xJhosKY4wxyXBRYYwxJhkuKowxxiTDRYUxxphkuKgwxhiTDBcVxhhjkuGiwhhjTDJcVBqxCxcuiEP1JsUagG6tI8UagG6tI8UagG6tI8Ua7M/Hv/zIGGNMMnykwhhjTDJcVBh7RTdu3MDNmzdf6ffUc3JyEBERgby8PPEQYw2KgTjAGqalS5ciOTkZGzduRLNmzcTD9fL06VMkJiaia9euMDU1RWZmJg4cOICbN2+iZ8+emDJlCvT19cXTqsnMzERQUBBSUlKQmZkJKysrODg4oH///ujSpYs4vUaxsbGIiopCeno6cnJyYGtrCycnJwwdOhS2trbi9D9MdHQ0Zs+ejZkzZ2Lq1KlQKpXw8PDAiRMnAAAdO3ZEUFAQ2rZtK5r5QmVlJRYsWICwsDBcuXIFAHDq1CmMGzcOBQUFkMlkWLlyJZYvXy6aWd2hQ4dw/vx52Nra4qOPPoKjo6Mw9uzZMyxcuBBz585Fq1atVGZVl5aWhuzsbHTq1Al6enq4f/8+Tp48ifz8fLi7u6NHjx7iKVqJjY3FkiVLcOzYMfFQNUqlEhkZGXBwcIBM9vyzbkVFBfz8/BAZGYkmTZrAzc0N7u7uoplM5xBrFDw8PMjZ2Zns7e3p8OHD4mGtbd26lQwMDAgAWVpaUkREBPXo0YNatWpFf/3rX6lJkyY0ZMgQqqysFE9Vs379ejI2NiZHR0eytLQkANSxY0dydnYmANS/f3968uSJeJqa1NRUGjx4MAEgOzs76tKlC/Xq1Yvat29P5ubmZGRkRHPnzq3zb5HC1atXydLSksaNG0dXr14louevlUwmo71791JMTAwNGTKEevXqJZqpbvLkydS8eXPasGEDEREplUpydHQkV1dXio2NpR07dpCJiQmdOHFCNFPdjBkzyNDQkPr27UvW1tZkY2NDN27cEMZLS0sJAF24cEFllrrKykqaMmUKASAA1K5dO4qIiCBTU1NydnamNm3akEwmo82bN4unCkpLS+ny5csaHzt27CBLS0vheVpamni64Nq1awSAHj9+TEREFRUVNHDgQDIyMqL+/fuTq6sryeVymjVrlmgm0zVcVBoJDw8P+vjjjyk6Opo6depErq6uFBkZKU6rVXJyMhkaGpKvry8lJSWRr68vGRgY0IgRI0ipVBIRUVJSEllZWVFQUJBo9gvBwcFkYmJCISEhRET07NkzmjdvHo0ZM4aIiO7du0cjRoygbt261VoQ+vfvTy4uLmpvllWUSiWdOXOGWrRoQd988414WJCVlUXXrl3T6lFYWCieLpg7dy5NmTJFLebi4kLjxo0Tnj9+/JhkMhndvXtXJeuFrKwsMjAwoPj4eCF29uxZAkC3b98WYj4+PvTBBx8Iz8Vu3bpF+vr6dP78eSJ6/lp4eHhQ586dhf2kTVHx9/cnY2Nj+umnn+jWrVvk7e1Ncrmc5s2bJ+Ts3buXTExMKDMzU2XmC8nJyaSvry8Uptoevr6+4ukCcVFRKBRkYWGh9rrcunWLzM3NKTQ0VIgx3cNFpZGoKipEz99Qvv76a7K0tCRXV1fau3cvFRcXi2ZUd/jwYXJ0dBTe6IuLi8nc3JyOHj2qlufl5UVLly5Vi6lauHAhTZ8+XS1WWlpKhoaGlJqaSkREZWVlZGZmRjdv3lTLq5KXl0d6enp0//598ZAaPz8/cnV1FYcFx44dI1NT02pvcJoeYWFh4umCvn370pEjR4TnBQUFZGhoSAqFQiWLyNbWlk6ePKkWq3LmzBnq0qWLWmzJkiXUtm1btdjWrVupd+/eajFV/v7+1K1bN7VYUVEROTs705YtW4hIu6IyZ84cGjt2rPA8PT2dANCdO3dUsoiaN29e6xt5eHg4tWjRgkaPHk1xcXH06NEjevToEQUEBJCVlZXwPD8/XzxVIC4q8+bNo2nTpomyiMaPH09ffvmlOMx0CF+ob4TkcjmWLFmChIQE9OnTB5999hmsrKzg4uKCH3/8UZwuMDY2RmFhIcrLywEAxcXFKCsrQ1FRkVpecXExTExM1GJiJLporaenBz09PWRmZgoxIyMjpKSkqGS9IJfLYWhoiKysLPGQmpycHDRp0kQcFgwfPhxJSUno0KEDhg0bhocPH9b46NOnj3i6IDc3FyUlJcLz8PBwKJVKDBo0SIgREYqKimBqairEVInXAICQkBAMHjxYLVZQUFDjGgDg6OiIlJQUVFRUCDFTU1N88803WLFiBTIyMlSya6avr6/22tna2mLEiBGwt7dXyXq+XbVdQ3NxccH169chl8sxevRoZGRkwMnJCXZ2dtDX14eTkxOcnJxq3U9iFhYWattXJScnB0ZGRuIw0yWiIsMaKNUjFbGysjIKDAykGTNmVDuFoyonJ4feeOMN8vDwoD179pCbmxs1b96cunbtSsnJyUREdPz4cTI0NKSIiAjR7BdCQ0NJLpdTYGAgVVRUUGFhIc2aNYvs7OyovLycHj9+TNOmTSMLC4saT6sQEX344Yfk6OhIP//8M8XFxVFeXh4plUrKysqimJgY8vX1JRMTEzp48KB4ajUbN24kT09PcVhrHh4eNGnSJOH5lClTqFOnTioZRNHR0QSAsrOz1eJVqj6NJyQkEBFRYmIi6enp0aFDh9Tyhg8fTp988olaTFVhYSHZ2dnRuHHj6ObNm1ReXi6MjR49mnr16kW///57nUcqAQEBZG5uTr/99luNp/62b99OBgYGNY6L/frrr2RlZUXr1q2j8+fPk42NjThFo6rXxtPTk3x9fWnNmjXUpEkTtVOfQUFBJJfLhdN+TDdxUWkkaisq9REWFkbt2rUjfX19cnV1pZycHPrggw8IAJmZmZGenl6tp76qrFy5kvT19Ukul5NMJqOmTZsKp4W2bNlC9vb2NZ4mqlJSUkJLly4la2vraqeqANBbb71Ffn5+4mkaxcXFUWBgoDisteDgYJLJZOTj40PTp08nfX19+vrrr4no+ammiIgI6tixY52Fq1+/ftSpUyfy9fWl9u3bk5WVFRUVFRHR89NPq1atIrlcTpcvXxbNVBcVFUXNmzcnAHTs2DEhXlhYSCNHjhReo9qKChHR/PnzSV9fn3r06KEWz8zMJHt7e5LJZFq/xlXi4uKoR48e1LJlS62LSnZ2Nn333Xc0a9YsGjJkCLVu3ZoMDAyE6zDHjx8nADR37lzRTKZruKg0EpGRkXTt2jVxWFBaWkoBAQHCG2Fdqi74Ej2/SygqKop27txJx48fp5UrV9L169dVsjWLj4+nPXv20KFDhygjI0OI5+bm0u+//04+Pj4q2TUrKSmh2NhYOn36NB08eJDOnTtHcXFx4rQ/3L59+6h79+7UrFkz8vb2Fo4QtmzZQgCob9++lJeXJ5ql7unTpzRhwgRycnKirl27ql2rsLGxITMzM9q9e7fKjJoplUq6ffu2xiOja9eu0Y4dOyglJUU8VE1GRka1/zsFBQX0/fff13jNqy7l5eW0bt06WrRokXhIa0qlUrgOk5iYSOHh4aIMpov4a1oaMSJCeHg4FAoFDh06hNzcXIwePRpBQUHi1FplZGTg4MGDQs+AgYEBIiIi0LNnT3Fqre7evQuFQgGFQoEHDx7AwsKiUTT7paamorCwEO3btxcP1cvly5fRtm1bWFpaiocYazC4+bERio2NhUKhwL59+5CSkgJra2tMmDAB48ePx7vvvitO16ioqAhBQUFQKBQIDg7Gs2fP4OLigm3btsHT0xM2NjbiKRqlp6fD398ffn5+uHLlCoyMjDBq1Ch8++23GD58uDi9QcrKyoJMJgMRQU9PTzyslZycHOEGCcYaMj5SaSRSUlKwf/9++Pn5ITY2FtbW1hgzZgzu3r0LFxcXrF27VjylmmfPniE4OBgKhQJBQUEoKipC7969MXDgQKxbtw6lpaWQy+XiadXk5+cjICAACoUCoaGhMDAwwJAhQ2BpaYmEhAT85z//EU+ppry8HHfu3BGHNbK3t6/xWwSys7NrvMNMrE2bNjAzMxOHBbrSUS/VNiUnJyMnJ0cc1ujtt98WhwDo5n5ir5nquTDWcBkaGpKFhQVNnjyZjh8/Lpzvnzp1Ki1evFiUrdmaNWsIAHXv3p3Wr19PDx8+JCKihw8fEgAqLS0VzdDM3d2dDAwMaOjQobRz507Kzc0lIqJdu3ZRnz59RNmapaWlkb29fbWL85oetTXVSdWnoksd9VJt0/Lly0kmk1Wbo+lRE13bT+z149NfjYShoSHKy8tRVlYGPT094fuT6sPQ0BDA8z6UysrKWnsTamNoaIiKigqhJ+Nl1nFwcEBKSgq8vLxw+vRpXL16VZwiaNq0qTgkqOpTcXFxQatWrbBt2zZxikDcn6Fq586d8PDwwK5du4SYv78/PD09MWnSJADA7t274ejoiHv37mm8vpKdnY19+/bhzp07aNOmDYDn/S5paWkICQnBW2+9hc6dO+PKlSvYs2cPhg0bJlrhOam2afXq1RgzZgzeeecdLFu2DFOmTBGn1EnX9hPTAeIqwxqmnJwc+vnnn8nFxYX09PTIwcGBFi5cSG5ublofqRARXbp0iWbNmkU2NjYkk8nI3d2dNmzYQID2Ryrl5eX022+/kaenJ8nlcjI1NSUvLy/y8fHR+kilSkxMjNa3pdbmVftUdKmjvsqrblOVkSNHCp34L0tX9hN7/bioNEIPHjyg1atXU/v27QkAOTg40OLFiyk2NlacWqOqwjB27FgyNjYmADRs2DBSKBRaN8IRPS92v/zyi1DsTExMaNq0aRQSEkIVFRXi9GpKS0vp+++/F4fr7VX7VDp27KjWr1HVN5Geni7EKisrydTUtMbmvIMHD1KbNm3UYj179qzWX7Ru3ToaOHCgWkyTV92mKiEhIRQTEyMO14uu7Cf2+nFRaeQiIyNpzpw5ZGtrSwBo/Pjx4pQ65ebm0vbt26l///6kp6dHZmZmdOXKFXFanR48eEBfffWVWrFrKHSpo54xXcZF5X+EUqmko0eP0vr168VD9fLw4UNas2aNxm8Oro+oqCiaM2eOOFwvmZmZtG3bNjpw4IB4qF7i4+PrbOjUtY76umizTdq4ePGi1k2qNfkz9xN7/biosAaluLiYDhw41/nOQQAABL9JREFUQKNGjSJDQ0MCQJs2bRKn1enJkyf0ww8/UO/evQkAGRgYUFRUlDhNja511Iu9zDZpcufOHVq+fDm1atWKAJCFhYU4pU6vcz+x14uLCtN5FRUVFBwcTFOnTqUmTZoQAGrbti35+vrSvXv3xOk1KiwsJD8/Pxo2bJjwQ2QuLi60bds2evr0qThda48eParxN1TqIzo6Wrj9WltSbVNaWhpt2rSJunfvTgDIyMiIPD096ciRI1rfoKHr+4n9ObioMJ0VExND8+fPJwcHBwJArVu3piVLlpCtrS2dOnVKnK6RUqmkEydO0MSJE8nMzIwAUO/evWnx4sUEaH9H265du175lFRCQoJa387Lkmqb8vLyaOfOneTm5kYymYyMjIxo5MiRNGnSpHrdpadL+4m9flxUmE66ePEiAaAWLVrQggULKDo6Whhr2bKl1m9WUjV0Vn3zb7t27er9ybtKdHQ0yWQyksvl9P7779ORI0eopKREnFYnqbZJiiZVXdtP7PWrf4ccY38CAwMD6OnpoaSkBEql8qUaKAHpGjoDAwMRGhqKwYMHY9u2bWjfvj169uyJf/7zn0hPTxena9SjRw+kpqZi48aNePr0KcaOHQt7e3t4e3vj7NmzGn+UShOptkmKJlVd209MB4irDGO64v79+7Rq1Spq164dAaAuXbrQxo0byd7eXutPwETSNHSqqqiooHPnzpGPj4/wmyODBw+mf/3rX5STkyNOr1F6ejpt2bKFBgwYQDKZjOzt7enTTz/V6kK0FNskVZOqru4n9npwUWENQmRkJM2ePZtsbGwIAHXt2pW+++47SktLE6fWSKqGTlUVFRUUFhZGs2bNIlNTU5LL5eIUrTx+/Ji2bt1KPXv2JAC0du1acYpGUm3TqzapVtHV/cT+PFxUWINSXl5O//73v4U3HJlMRj/++KM4rU5SNXTGx8fTqlWrqEOHDgSAOnfuLE6pU2lpKQUGBgrbZGpqSnv27BGn1UmqbZKiSVXX9hP78/BX37MGKy8vD4cPH4alpSU8PT3Fw1pLSkqCQqHAyJEj0aVLF/FwNenp6Th48CD27duHqKgoODg4YPz48fDy8kK3bt3E6RpVVlYiLCwM+/btw5EjR5Cfn49BgwbBy8sL7733HszNzcVT6qW+21ST6Oho7N27F5s3bxYPae117Sf2enBRYUwLubm5CAgIwP79+xEaGgpjY2OMGTMGXl5ecHNz0/rCcnR0NPbv3w9/f3+kp6ejc+fO8PLywsSJE+Hk5CROZ6zB4aLCmBbc3d0RGhqKgQMHwsvLC++//369jyYuXryIfv36wd7eHhMmTKjXkQ1jDQUXFca0cPToUXTv3v2VjiaSk5Nx+/ZtuLu7a31kw1hDw0WFMcaYZLj5kTHGmGS4qDDGGJMMFxXGGGOS4aLCGGNMMlxUGGOMSYaLCmOMMclwUWGMMSYZLiqMMcYkw0WFMcaYZLioMMYYkwwXFcYYY5LhosIYY0wyXFQYY4xJhosKY4wxyXBRYYwxJhkuKowxxiTDRYUxxphkuKgwxhiTDBcVxhhjkuGiwhhjTDJcVBhjjEmGiwpjjDHJcFFhjDEmGS4qjDHGJMNFhTHGmGS4qDDGGJPM/wNxSxEPekNcwAAAAABJRU5ErkJggg==;" vertex="1" parent="1">
          <mxGeometry x="230" y="220" width="405" height="429" as="geometry" />
        </mxCell>
        <mxCell id="W3qFa2u0LohmZV0F8mYn-2" value="" style="rounded=0;whiteSpace=wrap;html=1;fillColor=#f8cecc;strokeColor=#b85450;opacity=30;strokeWidth=2;" vertex="1" parent="1">
          <mxGeometry x="370" y="230" width="20" height="70" as="geometry" />
        </mxCell>
        <mxCell id="W3qFa2u0LohmZV0F8mYn-3" value="" style="rounded=0;whiteSpace=wrap;html=1;fillColor=#f8cecc;strokeColor=#b85450;opacity=30;strokeWidth=2;" vertex="1" parent="1">
          <mxGeometry x="464" y="230" width="16" height="70" as="geometry" />
        </mxCell>
        <mxCell id="W3qFa2u0LohmZV0F8mYn-4" value="" style="rounded=0;whiteSpace=wrap;html=1;fillColor=#f8cecc;strokeColor=#b85450;opacity=30;strokeWidth=2;" vertex="1" parent="1">
          <mxGeometry x="480" y="230" width="16" height="70" as="geometry" />
        </mxCell>
        <mxCell id="W3qFa2u0LohmZV0F8mYn-5" value="" style="rounded=0;whiteSpace=wrap;html=1;fillColor=#f8cecc;strokeColor=#b85450;opacity=30;strokeWidth=2;" vertex="1" parent="1">
          <mxGeometry x="580" y="340" width="70" height="20" as="geometry" />
        </mxCell>
        <mxCell id="W3qFa2u0LohmZV0F8mYn-6" value="" style="rounded=0;whiteSpace=wrap;html=1;fillColor=#f8cecc;strokeColor=#b85450;opacity=30;strokeWidth=2;" vertex="1" parent="1">
          <mxGeometry x="230" y="360" width="70" height="20" as="geometry" />
        </mxCell>
      </root>
    </mxGraphModel>
  </diagram>
</mxfile>
